<?xml version="1.0" standalone="no"?>
<!DOCTYPE svg PUBLIC "-//W3C//DTD SVG 1.1//EN" "http://www.w3.org/Graphics/SVG/1.1/DTD/svg11.dtd" >
<svg xmlns="http://www.w3.org/2000/svg">
<metadata>
Created by FontForge 20120731 at Wed Feb 22 10:47:24 2017
 By admin
</metadata>
<defs>
<font id="iconfont" horiz-adv-x="1024" >
  <font-face 
    font-family="iconfont"
    font-weight="500"
    font-stretch="normal"
    units-per-em="1024"
    panose-1="2 0 6 3 0 0 0 0 0 0"
    ascent="896"
    descent="-128"
    x-height="792"
    bbox="0 -212 1755 896.154"
    underline-thickness="0"
    underline-position="0"
    unicode-range="U+0078-E7FC"
  />
<missing-glyph 
 />
    <glyph glyph-name=".notdef" 
 />
    <glyph glyph-name=".notdef" 
 />
    <glyph glyph-name=".null" horiz-adv-x="0" 
 />
    <glyph glyph-name="nonmarkingreturn" horiz-adv-x="341" 
 />
    <glyph glyph-name="x" unicode="x" horiz-adv-x="1001" 
d="M281 543q-27 -1 -53 -1h-83q-18 0 -36.5 -6t-32.5 -18.5t-23 -32t-9 -45.5v-76h912v41q0 16 -0.5 30t-0.5 18q0 13 -5 29t-17 29.5t-31.5 22.5t-49.5 9h-133v-97h-438v97zM955 310v-52q0 -23 0.5 -52t0.5 -58t-10.5 -47.5t-26 -30t-33 -16t-31.5 -4.5q-14 -1 -29.5 -0.5
t-29.5 0.5h-32l-45 128h-439l-44 -128h-29h-34q-20 0 -45 1q-25 0 -41 9.5t-25.5 23t-13.5 29.5t-4 30v167h911zM163 247q-12 0 -21 -8.5t-9 -21.5t9 -21.5t21 -8.5q13 0 22 8.5t9 21.5t-9 21.5t-22 8.5zM316 123q-8 -26 -14 -48q-5 -19 -10.5 -37t-7.5 -25t-3 -15t1 -14.5
t9.5 -10.5t21.5 -4h37h67h81h80h64h36q23 0 34 12t2 38q-5 13 -9.5 30.5t-9.5 34.5q-5 19 -11 39h-368zM336 498v228q0 11 2.5 23t10 21.5t20.5 15.5t34 6h188q31 0 51.5 -14.5t20.5 -52.5v-227h-327z" />
    <glyph glyph-name="chuangjian" unicode="&#xe666;" 
d="M481 134v13q0 6 1 13h-215q-22 0 -38 16t-16 39.5t16 40t38 16.5h253q33 53 87 84.5t119 31.5q7 0 15 -1q7 0 15 -1v222h-126q-24 0 -41.5 11.5t-28.5 28t-16 36t-5 36.5v112h-245h-87h-70q-14 0 -23.5 -9.5t-9.5 -23.5v-82v-31v-549v0v-113q0 -14 9.5 -23.5t23.5 -9.5
h77q1 -1 2 -1h308q-21 31 -32 67.5t-11 76.5zM229 480q16 16 38 16h326q22 0 38 -16t16 -39.5t-16 -40t-38 -16.5h-326q-22 0 -38 16.5t-16 40t16 39.5zM905 209q-15 36 -41 63t-60.5 42.5t-74.5 15.5q-39 0 -74 -15q-35 -16 -61 -43t-41 -63t-15 -76q0 -41 15 -77t41 -63
t61 -42q35 -16 74 -16q40 0 74.5 15.5t60.5 42.5t41 63t15 77q0 40 -15 76zM754 22q0 -11 -8.5 -19.5t-19.5 -8.5t-19 8t-8 19l1 82l-83 -1q-11 0 -19 8t-7.5 19.5t8.5 19.5t19 8l83 2l2 83q0 11 8 19t19.5 8.5t19.5 -7.5t8 -19l-1 -83l82 1q11 0 19 -8t8 -19t-8.5 -19.5
t-19.5 -8.5l-82 -1zM658 666h1h97v14v119q0 14 -9.5 23.5t-22.5 9.5h-129h-2v0v-99q0 -28 19.5 -47.5t45.5 -19.5z" />
    <glyph glyph-name="bofang1" unicode="&#xe6bc;" 
d="M512 812q-139 0 -257 -68.5t-186.5 -186.5t-68.5 -257t68.5 -257t186.5 -186.5t257 -68.5t257 68.5t186.5 186.5t68.5 257t-68.5 257t-186.5 186.5t-257 68.5zM512 -148q-122 0 -225 60t-163 163t-60 225t60 225t163 163t225 60t225 -60t163 -163t60 -225t-60 -225
t-163 -163t-225 -60zM384 556l384 -256l-384 -256v512z" />
    <glyph glyph-name="renwu" unicode="&#xe629;" 
d="M512.5 828q-90.5 0 -173 -35t-142 -94.5t-94.5 -142t-35 -172.5t35 -172.5t94.5 -142t142 -94.5t173 -35t172.5 35t141.5 94.5t95 142t35.5 172.5t-35.5 172.5t-95 142t-141.5 94.5t-172.5 35zM657 228l-13 -13q-8 -8 -19.5 -8.5t-20.5 7.5l-149 128q-8 8 -14 21.5
t-5 24.5l15 246q1 11 9.5 19.5t20.5 8.5h18q11 0 19.5 -8.5t9.5 -19.5l13 -201q1 -28 20 -49l97 -116q8 -8 7.5 -20t-8.5 -20z" />
    <glyph glyph-name="zhinenghuaxuanpinicon2" unicode="&#xe6b0;" 
d="M693 253q-47 -43 -98.5 -99.5t-79.5 -90.5l-28 -35q-45 67 -97 131q-23 29 -50 62t-43 51l-16 19l65 65l141 -151q69 61 151 127q45 37 114 86.5t117 81.5l47 32l43 -44l-42 -36t-108.5 -94.5t-115.5 -104.5zM784 663h-438v-175h-175v-526h613v304q22 25 44 47
q20 19 44 41v-435q0 -19 -13 -31.5t-31 -12.5h-701q-18 0 -30.5 12.5t-12.5 31.5v610l216 221h528q18 0 31 -12.5t13 -30.5v-139q-49 -34 -88 -63v158z" />
    <glyph glyph-name="1" unicode="&#xe68c;" 
d="M927 363v-327h-830v327h-30v-327v-29h30h830h30v29v327h-30zM502 705v-485h29v485l174 -174l21 20l-189 189l-21 21l-21 -21l-188 -189l21 -20z" />
    <glyph glyph-name="renwu1" unicode="&#xe62a;" 
d="M784 451l-298 -357l-218 186l37 42l174 -149l262 314zM174 148q0 -64 42 -109.5t100 -45.5h388q59 0 100.5 45.5t41.5 109.5v390q0 56 -33 99t-83 53q4 -28 4 -53h28v-56h-504v56h28q0 25 4 53q-49 -10 -82.5 -53t-33.5 -99v-390zM902 538v-390q0 -87 -58 -149t-140 -62
h-388q-82 0 -140 62t-58 149v390q0 84 54 144.5t132 65.5q28 85 94 85h224q66 0 95 -85q77 -5 131 -65.5t54 -144.5zM678 637q0 19 -3 41.5t-9 45.5t-17.5 38t-26.5 15h-224q-15 0 -26.5 -15t-17.5 -38t-9 -45.5t-3 -41.5h336z" />
    <glyph glyph-name="shezhi1" unicode="&#xe68d;" 
d="M653 -48v0q-27 0 -44 19q-17 18 -45 37.5t-52 19.5q-25 0 -53 -19.5t-44 -36.5q-17 -18 -44 -18q-12 0 -22 4l-1 1l-114 63l-1 1q-16 11 -21 30t3 36q10 24 10 46q0 50 -35.5 85t-84.5 35h-4h-1q-14 0 -25 12t-15 31q-9 52 -9 91.5t9 90.5q4 20 15 32t26 11h4
q49 0 84.5 35.5t35.5 85.5q0 22 -10 46q-8 17 -3 36t21 30h1l120 66l1 1q11 4 22 4q27 0 44 -18q17 -17 44.5 -35t50.5 -18q24 0 51.5 17.5t43.5 34.5q17 18 43 18q12 0 23 -5h1l116 -65h1q16 -11 21 -30t-3 -36q-10 -24 -10 -46q0 -50 35.5 -85.5t84.5 -35.5h4
q15 0 26 -11.5t15 -31.5q9 -51 9 -90.5t-9 -91.5q-4 -19 -15 -31t-26 -12h-4q-49 0 -84.5 -35t-35.5 -85q0 -22 10 -46q8 -17 3 -36t-21 -30l-1 -1l-118 -65h-1q-10 -5 -22 -5v0zM649 8q2 -1 4 -1v0l110 61q-15 34 -15 67q0 70 48.5 120.5t117.5 54.5q9 47 9 79.5t-9 79.5
q-69 3 -117.5 54t-48.5 121q0 33 15 67l-108 60h-1q-2 0 -4 -1q-17 -17 -40 -33q-50 -36 -94 -36t-94 36q-24 17 -40 35q-2 1 -5 1v0l-112 -62q15 -34 15 -67q0 -70 -48.5 -121t-117.5 -54q-9 -47 -9 -79.5t9 -79.5q69 -4 117.5 -54.5t48.5 -120.5q0 -33 -15 -68l106 -59v0
q2 0 4 1q17 18 40 36q52 37 97 37t96 -38q24 -18 41 -36v0zM512 229q-66 0 -113.5 47.5t-47.5 113.5t47.5 113t113.5 47t113 -47t47 -113t-47 -113.5t-113 -47.5zM512 496q-44 0 -75 -31t-31 -75t31 -75t75 -31t75 31t31 75t-31 75t-75 31z" />
    <glyph glyph-name="tianjia" unicode="&#xe668;" 
d="M686 415h-136v135q0 16 -11 27.5t-27 11.5t-27.5 -11.5t-11.5 -27.5v-135h-136q-16 0 -27 -11.5t-11 -27.5t11 -27.5t27 -11.5h136v-136q0 -16 11.5 -27t27.5 -11t27 11t11 27v136h136q16 0 27.5 11.5t11.5 27.5t-11.5 27.5t-27.5 11.5v0zM511 860q-98 0 -187.5 -38
t-154.5 -103t-103.5 -155t-38.5 -188t38.5 -188t103.5 -154.5t154.5 -103t188 -38.5t188 38.5t154.5 103t103.5 154.5t38.5 188t-38.5 188t-103.5 155t-154.5 103t-188.5 38v0zM511 -48q-115 0 -212.5 57t-154 154.5t-56.5 212.5t56.5 212.5t154 154.5t212.5 57t212.5 -57
t154.5 -154.5t57 -212.5t-57 -212.5t-154.5 -154.5t-212.5 -57v0zM511 -48z" />
    <glyph glyph-name="csac" unicode="&#xe653;" 
d="M295 876h40v-39h-40v39zM295 798h40v-40h-40v40zM295 719h40v-40h-40v40zM295 640h40v-39h-40v39zM295 561h40v-39h-40v39zM295 640h40v-39h-40v39zM295 482h40v-39h-40v39zM295 482h40v-39h-40v39zM295 404h40v-40h-40v40zM295 325h40v-39h-40v39zM295 246h40v-39h-40
v39zM295 167h40v-39h-40v39zM295 246h40v-39h-40v39zM295 89h40v-40h-40v40zM295 325h40v-39h-40v39zM295 246h40v-39h-40v39zM295 167h40v-39h-40v39zM295 89h40v-40h-40v40zM295 10h40v-40h-40v40zM295 89h40v-40h-40v40zM295 -69h40v-39h-40v39zM729 404v-40h-40v40h40z
M650 404v-40h-40v40h40zM729 404v-40h-40v40h40zM571 404v-40h-39v40h39zM729 404v-40h-40v40h40zM650 404v-40h-40v40h40zM571 404v-40h-39v40h39zM492 404v-40h-39v40h39zM571 404v-40h-39v40h39zM414 404v-40h-40v40h40z" />
    <glyph glyph-name="xiangxia" unicode="&#xe656;" 
d="M512 893q103 0 197.5 -40t163 -108.5t108.5 -163t40 -197.5t-40 -197.5t-108.5 -163t-163 -108.5t-197.5 -40t-197.5 40t-163 108.5t-108.5 163t-40 197.5t40 197.5t108.5 163t163 108.5t197.5 40v0zM512 -53q89 0 169.5 35t139 93.5t93.5 139t35 169.5t-35 169.5
t-93.5 139t-139 93.5t-169.5 35t-169.5 -35t-139 -93.5t-93.5 -139t-35 -169.5t35 -169.5t93.5 -139t139 -93.5t169.5 -35v0zM305 323l180 -182q17 -17 39 -8q1 0 1.5 0.5t1.5 0.5q6 3 9 7v0v0l182 180q10 11 10 26t-10.5 26t-25.5 11t-26 -11l-118 -118v347q0 15 -10.5 26
t-25.5 11t-25.5 -11t-10.5 -26v-348l-120 120q-10 11 -26 11q-15 0 -25.5 -10.5t-10.5 -25.5t11 -26v0zM305 323z" />
    <glyph glyph-name="xiaolvdashitubiao33301" unicode="&#xe6cc;" 
d="M901 305l-3 -3l-370 -370v0q-1 0 -3 -2q-69 -67 -166 -66.5t-165 69t-68.5 165.5t66.5 166q33 34 424 424q48 48 117 48t117.5 -48.5t48.5 -116.5q-1 -69 -49 -117l-425 -426q-27 -24 -63.5 -23t-62 26.5t-26.5 62t24 63.5q1 1 1 2h1v1l1 1v0l370 370q7 7 7 17.5t-7 17.5
t-17.5 7t-17.5 -7l-370 -370l-2 -1v-0.5v-0.5l-5 -4v0q-2 -2 -4 -6q-34 -41 -31.5 -95t41.5 -93q40 -40 96.5 -41.5t98.5 37.5v0l1 1l425 425q64 63 64 152.5t-63.5 152.5t-153 63t-152.5 -63l-212 -212l-145 -146l-66 -65q0 -1 -0.5 -1h-0.5v0q-81 -84 -80.5 -201.5
t83.5 -200.5t202 -83q115 0 197 78l0.5 0.5t1 0.5t0.5 0.5t1 0.5l2 2l1 1l369 369v1q1 0 1.5 0.5t0.5 1.5q8 7 8 17t-7 18t-17.5 8t-17.5 -7v0zM901 305z" />
    <glyph glyph-name="upload" unicode="&#xe690;" 
d="M821 503h-114v-48h114q20 0 33.5 -14t13.5 -34v-338q0 -20 -13.5 -34t-33.5 -14h-619q-20 0 -34 14t-14 34v338q0 20 14 34t34 14h114v48h-114q-40 0 -67.5 -28t-27.5 -68v-338q0 -40 27.5 -67.5t67.5 -27.5h619q39 0 67 27.5t28 67.5v338q0 40 -28 68t-67 28zM355 587
l133 133v-446q0 -10 7 -17t16.5 -7t16.5 7t7 17v443l130 -130q7 -7 16.5 -7t16.5 7t7 17t-6 17l-172 172q-7 7 -17 7v0q-10 0 -17 -7l-172 -172q-7 -7 -7 -17t7 -17t17 -7t17 7z" />
    <glyph glyph-name="jjshchakanguo" unicode="&#xe62b;" 
d="M511.5 835q-91.5 0 -174.5 -36t-143 -96t-96 -143t-36 -174.5t36 -174.5t96 -143.5t143 -96t174.5 -35.5t174.5 35.5t143.5 96t96 143.5t35.5 174.5t-35.5 174.5t-96 143t-143.5 96t-174.5 36zM511.5 221q-130.5 0 -222.5 44t-92 106q0 41 41.5 82.5t115.5 69t157.5 27.5
t157.5 -27.5t115.5 -69t41.5 -82.5q0 -62 -92 -106t-222.5 -44zM511.5 503q-49.5 0 -84.5 -35t-35 -84.5t35 -84.5t84.5 -35t84.5 35t35 84.5t-35 84.5t-84.5 35z" />
    <glyph glyph-name="duihaokuangxuan" unicode="&#xe680;" 
d="M843 829h-662q-48 0 -81 -33.5t-33 -80.5v-662q0 -47 33 -80.5t81 -33.5h662q47 0 80.5 33.5t33.5 80.5v662q0 47 -33.5 80.5t-80.5 33.5v0zM822 502l-353 -353q-6 -6 -15.5 -6t-16.5 6l-7 7v0l-7 8l-34 33v1v0l-152 154q-7 6 -7 15.5t7 16.5l48 48q6 6 15.5 6t16.5 -6
l137 -138l288 288q6 6 15.5 6t16.5 -6l48 -48q6 -7 6 -16.5t-6 -15.5v0zM822 502z" />
    <glyph glyph-name="bangzhuzhongxin" unicode="&#xe62d;" 
d="M512 832q-91 0 -174 -35.5t-143 -95.5t-95.5 -143t-35.5 -174t35.5 -174t95.5 -143.5t143 -96t174 -35.5t174 35.5t143 96t95.5 143.5t35.5 174t-35.5 174t-95.5 143t-143 95.5t-174 35.5zM512 63q-20 0 -34 14t-14 34t14 34t34 14t34 -14t14 -34t-14 -34t-34 -14z
M601 390q-19 -18 -28.5 -28.5t-19 -26t-9.5 -27.5v-54q0 -13 -9.5 -22.5t-22.5 -9.5t-22.5 9.5t-9.5 22.5v54q0 24 13 49.5t25.5 40t36.5 38.5q18 17 26.5 26.5t17.5 23.5t9 24q0 40 -28 68.5t-68 28.5t-68 -27.5t-28 -67.5q0 -13 -9.5 -22.5t-22.5 -9.5t-22.5 9.5
t-9.5 22.5q0 66 47 112.5t113 46.5t113 -47.5t47 -113.5q0 -22 -12 -45.5t-24 -37t-35 -37.5z" />
    <glyph glyph-name="excel" unicode="&#xe756;" 
d="M911 557h-162v-100h162v100zM911 429h-162v-100h162v100zM911 686h-162v-101h162v101zM911 178h-162v-101h162v101zM985 786h-390q-7 0 -13 -3v109l-578 -115v-786l578 -115v103q6 -3 13 -3h390q15 0 25 11t10 26v737q0 15 -10 25.5t-25 10.5zM394 214l-70 5l-53 133
l-57 -124l-66 5l84 151l-75 164l66 5l44 -124h8l49 133l70 5l-88 -174zM976 22h-394v55h132v101h-132v23h132v100h-132v28h132v100h-132v28h132v100h-132v28h132v101h-132v54h394v-718zM911 301h-162v-100h162v100z" />
    <glyph glyph-name="shijian" unicode="&#xe62e;" 
d="M512 834q-186 0 -318 -132t-132 -318t132 -318t318 -132t318 132t132 318t-132 318t-318 132v0v0zM737 334h-239q-7 0 -14 3q-23 10 -23 34v239q0 16 11 26.5t26 10.5t26 -11t11 -26v-202h202q16 0 26.5 -10.5t10.5 -26t-11 -26.5t-26 -11v0v0zM737 334z" />
    <glyph glyph-name="wenhao1" unicode="&#xe6b5;" 
d="M511 896q-104 0 -198.5 -40.5t-163 -109t-109 -163t-40.5 -198.5t40.5 -198.5t109 -163t163 -109t198.5 -40.5t198.5 40.5t163 109t109 163t40.5 198.5t-40.5 198.5t-109 163t-163 109t-198.5 40.5v0zM508 28q-32 0 -54 21.5t-22 52t22 52.5t53.5 22t53.5 -22t22 -52.5
t-22 -52t-53 -21.5v0zM710 446q-22 -35 -94 -95q-38 -31 -47 -50t-8 -68h-107q-1 23 -1 28q0 52 17.5 86t69.5 76t61 55q16 20 16 45q0 34 -27.5 58.5t-74.5 24.5q-45 0 -75 -25q-15 -12 -27 -35.5t-15 -42.5q-2 -11 -29 -16.5t-53.5 2t-25.5 27.5q1 34 17.5 68t46.5 60
q59 53 156 53q102 0 162 -53.5t60 -123.5q0 -39 -22 -74v0zM710 446z" />
    <glyph glyph-name="xingxing" unicode="&#xe661;" 
d="M355 607q-12 -24 -32 -26l-183 -26q-34 -6 -54.5 -32.5t-19.5 -60.5t26 -59l132 -133q17 -18 13 -39l-32 -188q-4 -27 6 -51t28.5 -37t42.5 -16.5t47 10.5l163 88q20 11 39 0l164 -89q24 -14 47.5 -10t42 17t28.5 37t6 50l-32 188q-2 24 14 40l131 132q24 26 25.5 60
t-19 60.5t-54.5 32.5l-182 26q-24 5 -33 25l-81 173q-15 32 -45.5 44.5t-61 0t-45.5 -44.5zM355 607z" />
    <glyph glyph-name="gougou" unicode="&#xe618;" 
d="M479 135q-21 -21 -51.5 -21t-52.5 21l-235 230q-21 21 -21 51t21.5 51t52 21t52.5 -21l182 -179l352 345q22 21 52.5 21t52 -21t21.5 -51t-22 -51z" />
    <glyph glyph-name="appxiugaiicon39" unicode="&#xe62f;" 
d="M512 832q-91 0 -174 -35.5t-143 -95.5t-95.5 -143t-35.5 -174t35.5 -174t95.5 -143t143 -95.5t174 -35.5t174 35.5t143 95.5t95.5 143t35.5 174t-35.5 174t-95.5 143t-143 95.5t-174 35.5zM706 310v-2q0 -3 -2 -6q-5 -10 -16 -10q-4 0 -8 1v0q-40 19 -96 19
q-36 0 -67 -11q-30 -10 -57 -10q-34 0 -68 12q-21 7 -38 8v-167q0 -7 -5 -12.5t-13 -5.5t-13 5.5t-5 12.5v435q0 7 5 12.5t13 5.5q34 0 68 -11v0q28 -10 56 -10q21 0 45 9q37 12 79 12q67 0 112 -22q9 -5 10 -15v-2v-248z" />
    <glyph glyph-name="gengduo1" unicode="&#xe6b1;" 
d="M521 455q-26 0 -44.5 -18t-18.5 -44.5t18.5 -44.5t44.5 -18t44.5 18t18.5 44.5t-18.5 44.5t-44.5 18zM310 455q-26 0 -44.5 -18t-18.5 -44.5t18.5 -44.5t44.5 -18t44.5 18t18.5 44.5t-18.5 44.5t-44.5 18zM732 455q-26 0 -44.5 -18t-18.5 -44.5t18.5 -44.5t44.5 -18
t44.5 18t18.5 44.5t-18.5 44.5t-44.5 18zM967 576q-38 89 -106 157t-157 106q-91 38 -192 38q-100 0 -192 -38q-89 -38 -157 -106q-69 -68 -106 -157q-39 -92 -39 -192q0 -101 39 -193q38 -89 106 -157t157 -106q92 -38 192 -38t192 38q89 38 157 106q69 69 106 157
q39 92 39 192.5t-39 192.5zM512 -55q-89 0 -170 35t-140 93.5t-93.5 140t-34.5 170.5t34.5 170t93.5 139.5t140 93.5t170 35t170 -35t140 -93.5t93.5 -139.5t34.5 -170t-34.5 -170.5t-93.5 -140t-140 -93.5t-170 -35z" />
    <glyph glyph-name="chexiao" unicode="&#xe655;" 
d="M467 832l-394 -402l394 -397v252l16 8t41 15.5t61 16.5t70 6.5t73.5 -9.5t66.5 -36.5t54.5 -69.5t32.5 -114.5t4 -165.5q4 7 10 19.5t20.5 51.5t23.5 77.5t11 92.5t-9 102t-43.5 100.5t-85.5 94t-142 76t-207 51.5z" />
    <glyph glyph-name="shangchuan" unicode="&#xe694;" 
d="M506 221q-26 0 -46.5 12.5t-28.5 33.5q-5 13 7 18q13 5 18 -8t18.5 -21t31.5 -8q20 0 36.5 17t16.5 39v49q0 16 9 16h47q14 0 18 7q5 9 -6 23l-105 137q-10 13 -25 14t-26 -12l-104 -140q-11 -14 -6 -22q3 -7 18 -7h65q6 0 10 -4t4 -10t-4 -10t-10 -4h-65q-32 0 -43 22
q-12 25 9 52l104 139q19 24 46 24q29 0 49 -26l104 -136q22 -27 10 -52q-11 -23 -43 -23h-28v-37q0 -34 -24.5 -58.5t-56.5 -24.5zM437.5 307q-5.5 0 -9.5 4t-4 10t4 10t10 4t9 -4q4 -4 4 -10t-4 -10t-9.5 -4zM497 -22q-91 0 -173.5 35t-142.5 95t-95.5 143t-35.5 173.5
t35.5 173t95.5 142.5t142.5 95.5t173.5 35.5t173.5 -35.5t142.5 -95.5t95 -142.5t35 -173t-35 -173.5t-95 -143t-142.5 -95t-173.5 -35zM497 816q-106 0 -196.5 -52.5t-143 -142.5t-52.5 -196.5t52.5 -196.5t143 -142.5t196.5 -52.5t196.5 52.5t142.5 142.5t52 196.5
t-52 196.5t-142.5 142.5t-196.5 52.5zM829 411q-6 0 -10 4t-4 9q0 108 -65.5 193.5t-168.5 113.5q-13 4 -9.5 17t16.5 10q113 -31 184 -124t71 -210q0 -5 -4 -9t-10 -4zM515 742v0q-9 1 -18 1q-6 0 -10 4t-4 9.5t4 9.5t10 4h19q6 -1 9.5 -5t3.5 -10q0 -5 -4 -9t-10 -4z" />
    <glyph glyph-name="jindu" unicode="&#xe660;" 
d="M405 568l-34 -46l186 -138l-186 -138l34 -46l246 184zM221 568l-34 -46l184 -138l-184 -138l34 -46l245 184zM558 522l184 -138l-184 -138l34 -46l245 184l-245 184zM512 896q-212 0 -362 -150t-150 -362t150 -362t362 -150t362 150t150 362t-150 362t-362 150zM512 -77
q-94 0 -179 36.5t-147 98.5t-98.5 147t-36.5 179t36.5 179t98.5 147t147 98.5t179 36.5t179 -36.5t147 -98.5t98.5 -147t36.5 -179t-36.5 -179t-98.5 -147t-147 -98.5t-179 -36.5z" />
    <glyph glyph-name="tianjia_toolbar-copy" unicode="&#xe674;" 
d="M591 -109q-89 -14 -175 -14q-411 0 -411 112v67q0 61 81 115.5t193 75.5q4 3 11 8t16.5 22t4.5 37q-20 24 -33.5 52t-17.5 44l-4 16q-16 7 -25 19q-13 17 -21.5 47t-6.5 54q1 11 3.5 17.5t4.5 7t3.5 1.5t2.5 2q-21 57 -14 117t35 111q26 46 67.5 68.5t79.5 21t69 -14.5
t40 -32q43 8 73 -11t42.5 -53t17 -75t1.5 -75.5t-10 -54.5q2 -1 4 -3t5 -17t2 -40.5t-14 -49.5t-25 -35l-13 -11q-1 -14 -15.5 -45.5t-36.5 -60.5q-8 -18 -6 -32q-45 -72 -45 -156q0 -71 31 -132.5t86 -102.5zM1019 126q0 -103 -73 -176t-176 -73t-176 73t-73 176t73 176
t176 73t176 -73t73 -176zM907 161h-103v102h-69v-102h-103v-70h103v-103h69v103h103v70z" />
    <glyph glyph-name="3icon" unicode="&#xe631;" 
d="M296 575v0q0 -15 10 -25t24 -10t24.5 10t10.5 25v0v0q0 14 -10.5 24t-24.5 10t-24 -10t-10 -24v0zM619 399q-49 46 -102 -4q-50 -52 -3 -101q48 -45 100 4q50 54 5 101zM591 321q-37 -37 -62 -12q-26 26 11 63t63 11q25 -25 -12 -62zM530 483l-40 -40l-38 39l40 40
l-22 21l-101 -102l21 -21l45 45l39 -39l-45 -45l22 -21l101 101zM673 341l-17 -17l30 -30l-85 -85l22 -22l85 85l30 -30l17 17zM526 827q-91 0 -174 -35.5t-142.5 -95t-95 -142.5t-35.5 -174t35.5 -174t95 -143t142.5 -95.5t174 -35.5t174 35.5t143 95.5t95.5 143t35.5 174
t-35.5 174t-95.5 142.5t-143 95t-174 35.5zM646 33l-411 409l13 221l220 16l408 -412l-230 -234v0z" />
    <glyph glyph-name="gantanhao" unicode="&#xe691;" 
d="M512 -66q-186 0 -318 132t-132 318t132 318t318 132t318 -132t132 -318t-132 -318t-318 -132zM554 623q0 18 -12.5 30t-29.5 12t-29.5 -12t-12.5 -30v-309q0 -18 12.5 -30t29.5 -12t29.5 12t12.5 30v309zM512 187q-17 0 -29.5 -12.5t-12.5 -30t12.5 -29.5t29.5 -12
t29.5 12t12.5 29.5t-12.5 30t-29.5 12.5z" />
    <glyph glyph-name="daosanjiao" unicode="&#xe643;" 
d="M837 636l-323 -515l-323 515h646v0z" />
    <glyph glyph-name="xiangqingye" unicode="&#xe632;" 
d="M512 834q-186 0 -318 -132t-132 -318t132 -318t318 -132t318 132t132 318t-132 318t-318 132zM287 204q-9 0 -16 6.5t-7 16t7 16t16 6.5t15.5 -6.5t6.5 -16t-6.5 -16t-15.5 -6.5zM287 362q-9 0 -16 6.5t-7 15.5t7 15.5t16 6.5t15.5 -6.5t6.5 -15.5t-6.5 -15.5t-15.5 -6.5
zM287 519q-9 0 -16 6.5t-7 16t7 16t16 6.5t15.5 -6.5t6.5 -16t-6.5 -16t-15.5 -6.5zM759 215q0 -4 -3 -7.5t-8 -3.5h-337q-5 0 -8 3.5t-3 7.5v23q0 4 3 7.5t8 3.5h337q5 0 8 -3.5t3 -7.5v-23zM759 373q0 -5 -3 -8t-8 -3h-337q-5 0 -8 3t-3 8v22q0 5 3 8t8 3h337q5 0 8 -3
t3 -8v-22zM759 530q0 -4 -3 -7.5t-8 -3.5h-337q-5 0 -8 3.5t-3 7.5v23q0 4 3 7.5t8 3.5h337q5 0 8 -3.5t3 -7.5v-23z" />
    <glyph glyph-name="dianji" unicode="&#xe650;" 
d="M768 459q-14 0 -28 -4q-1 0 -3 1q-27 43 -77 43q-16 0 -32 -5q-26 45 -78 45q-9 0 -18 -2v51q0 40 -26.5 67t-65.5 27t-67 -27.5t-28 -66.5v-249l-14 15q-26 26 -66 26q-42 0 -68 -26q-28 -29 -31.5 -67.5t25.5 -71.5l213 -212q7 -7 17 -13q33 -27 75 -40t113 -13
q48 0 87 8t65 21.5t45 35.5t29.5 43.5t16.5 52t8 56t2 60.5v151q0 40 -27 67t-67 27v0zM825 214q0 -33 -1.5 -56.5t-6.5 -50.5t-14 -45t-25 -36t-39 -28.5t-55.5 -17t-74.5 -6.5q-64 0 -100.5 11t-65.5 35l-2 1q-6 4 -11 9l-212 211q-14 13 -15.5 30.5t4.5 31.5t16 24
q15 16 42 16q24 0 40 -16l78 -77v338q0 24 16.5 40.5t40.5 16.5q23 0 39 -16.5t16 -40.5v-108l1 1v-111q0 -8 5.5 -13.5t13 -5.5t13 5.5t5.5 13.5v129q9 3 17 3q18 0 32 -10.5t20 -28.5l2 -7v-121q0 -8 5.5 -13.5t13.5 -5.5t13 5.5t5 13.5v124q11 3 19 3q18 0 32 -10.5
t20 -28.5l1 -3v-122q0 -8 5.5 -13t13.5 -5t13.5 5t5.5 13v121q9 3 19 3q24 0 39.5 -16t15.5 -41v-151v0zM288 413q5 -3 11 -3q9 0 15 7q4 6 3 13.5t-7 12.5q-37 28 -57.5 68.5t-20.5 87.5q0 80 56.5 136.5t137 56.5t137 -56.5t56.5 -136.5q0 -20 -3 -39q-2 -8 2.5 -14
t12 -7.5t13.5 2.5t8 12q5 22 5 46q0 95 -68 163t-163.5 68t-163 -68t-67.5 -163q0 -55 24.5 -104t68.5 -82v0zM288 413z" />
    <glyph glyph-name="tianxie" unicode="&#xe689;" 
d="M200 58l280 99l489 489l-169 169l-489 -489zM800 740l94 -94l-75 -75l-94 94zM687 627l94 -94l-301 -300l-94 93zM444 193l-174 -68l74 169zM870 464v-404q0 -24 -17 -41t-41 -17h-627q-24 0 -41 17t-17 41v626q0 24 17 41t41 17h408v49h-428q-36 0 -61.5 -25.5
t-25.5 -61.5v-667q0 -36 25.5 -61.5t61.5 -25.5h667q36 0 61.5 25.5t25.5 61.5v425h-49z" />
    <glyph glyph-name="iconfontxiangji" unicode="&#xe61c;" horiz-adv-x="1028" 
d="M1028 623v-611q0 -1 -0.5 -2.5t-0.5 -2.5q-4 -25 -26 -38q-8 -5 -26 -8h-922l-1 1h-2q-23 2 -38 20q-7 9 -11 25v621l1 1q3 20 19 32.5t37 12.5q30 -1 267 -1h7q1 5 1 6q0 26 12 47q28 46 83 47h53.5h63h53.5q8 0 18 -2q29 -3 51 -25.5t26 -51.5q1 -4 1.5 -11.5t0.5 -9.5
h7h271q34 0 49 -28q0 -1 6 -22zM42 282v-5v-261q0 -13 14 -14h25h889q10 0 13.5 3.5t3.5 13.5v256v7h-7h-113h-7q-8 1 -14 6.5t-6.5 13t4.5 13.5t13 7q4 1 9 1h114h6q1 4 1 5v289q0 15 -16 15h-914q-8 0 -11.5 -3.5t-3.5 -11.5v-289v-5h6h124q5 0 10 -1q16 -4 17 -20
q0 -15 -16 -19q-4 -1 -10 -1h-125h-6zM374 674h279q2 21 -10 37q-16 21 -45 21h-84.5h-84.5q-5 0 -9 -1q-21 -2 -35 -19t-11 -38zM751 309q0 -98 -69.5 -167t-167 -69t-166.5 69.5t-69 167.5t69.5 167t167.5 68q98 0 167 -69.5t68 -166.5zM710 309q0 81 -57 138t-137.5 57
t-138 -57.5t-57.5 -138t57.5 -137.5t138 -57t137.5 57.5t57 137.5zM643 307q0 -53 -38 -90.5t-91 -37.5t-90.5 38t-37.5 91t38 91t91 37q53 0 90.5 -38t37.5 -91zM602 307q0 37 -25.5 62.5t-62 25.5t-62 -25.5t-25.5 -61.5t25.5 -62t62 -26t62 25.5t25.5 61.5z" />
    <glyph glyph-name="edit" unicode="&#xe669;" 
d="M419 288l14 -10l11 14l-14 11zM586 516l-150 -205l14 -10l151 204zM510 834q-91 0 -173.5 -35t-142.5 -95t-95.5 -143t-35.5 -174t35.5 -173.5t95.5 -142.5t142.5 -95.5t173.5 -35.5t174 35.5t142.5 95.5t95 142.5t35.5 173.5t-35.5 174t-95 143t-142.5 95t-174 35z
M518 650q6 9 17 10.5t19 -4.5l94 -70q9 -6 10.5 -16.5t-4.5 -19.5l-8 -10l-136 100zM268 156q-5 -2 -9 1t-4 9q3 27 15 129l118 -87q-21 -9 -69.5 -30t-50.5 -22zM281 329l218 296l136 -100l-218 -296zM723 153h-298v21h298v-21zM723 260h-234v21h234v-21z" />
    <glyph glyph-name="iconannex" unicode="&#xe600;" 
d="M632 666q-10 5 -18 5q-41 11 -80.5 -5.5t-53.5 -51.5l-98 -230q-13 -35 -2 -60q11 -29 42 -45q3 -1 6.5 -2.5t6.5 -2.5q28 -7 54.5 6t37.5 39l65 147l-28 13l-64 -147q-8 -19 -27.5 -27t-37.5 2q-19 7 -26 26.5t1 38.5l102 229q12 29 48.5 38.5t63.5 -3.5q29 -13 40 -42
t-2 -58l-160 -359q-11 -26 -36 -38t-51 -5q-3 0 -13 5q-28 13 -39 42.5t2 57.5l10 28l-28 10l-10 -28q-19 -38 -2 -80q15 -41 55 -57q10 -5 15 -5q37 -10 72 7t50 53l160 359q17 40 1.5 81t-56.5 59zM512 896q-104 0 -199 -40.5t-163.5 -109t-109 -163.5t-40.5 -199
t40.5 -199t109 -163.5t163.5 -109t199 -40.5t199 40.5t163.5 109t109 163.5t40.5 199t-40.5 199t-109 163.5t-163.5 109t-199 40.5zM512 -103q-99 0 -189.5 38.5t-155.5 103.5t-103.5 155.5t-38.5 189.5t38.5 189.5t103.5 155.5t155.5 103.5t189.5 38.5t189.5 -38.5
t155.5 -103.5t103.5 -155.5t38.5 -189.5t-38.5 -189.5t-103.5 -155.5t-155.5 -103.5t-189.5 -38.5z" />
    <glyph glyph-name="iconassignment" unicode="&#xe601;" 
d="M896 896h-768q-52 0 -90 -40.5t-38 -93.5v-762q0 -53 37.5 -90.5t90.5 -37.5h762q53 0 93.5 38t40.5 90v768q0 53 -37.5 90.5t-90.5 37.5zM768 192h-512q-14 0 -23 9t-9 23t9 23t23 9h512q14 0 23 -9t9 -23q0 -12 -10 -22t-22 -10zM768 384h-512q-14 0 -23 9t-9 23t9 23
t23 9h512q14 0 23 -9t9 -23q0 -12 -10 -22t-22 -10zM768 576h-512q-14 0 -23 9t-9 23t9 23t23 9h512q14 0 23 -9t9 -23q0 -12 -10 -22t-22 -10z" />
    <glyph glyph-name="iconcheck" unicode="&#xe602;" 
d="M512 896q-138 0 -256 -69t-187 -187t-69 -256t69 -256t187 -187t256 -69t256 69t187 187t69 256q0 140 -69 258t-186.5 186t-256.5 68zM768 504l-294 -294q-11 -10 -29 -10q-12 0 -28 10l-166 166q-10 11 -10 28q0 16 11.5 27.5t26.5 11.5q13 0 28 -10l138 -139l267 267
q10 10 28 10q15 0 26.5 -11.5t11.5 -27.5q4 -14 -10 -28z" />
    <glyph glyph-name="iconchecklist" unicode="&#xe603;" 
d="M74 749h876q30 0 52 21t22 52q0 30 -21 52t-53 22h-876q-30 0 -52 -21t-22 -53q0 -29 21 -51t53 -22zM74 458h585q30 0 52 21t22 52q0 30 -21 52t-53 22h-585q-30 0 -52 -21t-22 -53q0 -29 21 -51t53 -22zM950 310h-876q-30 0 -52 -21t-22 -52q0 -30 21 -52t53 -22h876
q30 0 52 21t22 52.5t-22 52.5t-52 21zM656 19h-582q-30 0 -52 -21t-22 -52q0 -30 21 -52t53 -22h585q30 0 52 21t22 53q-3 32 -24.5 52.5t-52.5 20.5z" />
    <glyph glyph-name="iconcircle" unicode="&#xe604;" 
d="M512 -128q-139 0 -257 68.5t-186.5 186.5t-68.5 257t68.5 257t186.5 186.5t257 68.5t257 -68.5t186.5 -186.5t68.5 -257t-68.5 -257t-186.5 -186.5t-257 -68.5zM512 847q-94 0 -180 -36.5t-148 -98.5t-98.5 -148t-36.5 -180t36.5 -180t98.5 -148t148 -98.5t180 -36.5
t180 36.5t148 98.5t98.5 148t36.5 180t-36.5 180t-98.5 148t-148 98.5t-180 36.5z" />
    <glyph glyph-name="icondelete" unicode="&#xe605;" 
d="M512 896q-139 0 -257 -68.5t-186.5 -186.5t-68.5 -257t68.5 -257t186.5 -186.5t257 -68.5t257 68.5t186.5 186.5t68.5 257t-68.5 257t-186.5 186.5t-257 68.5zM512 -79q-94 0 -180 36.5t-148 98.5t-98.5 148t-36.5 180t36.5 180t98.5 148t148 98.5t180 36.5t180 -36.5
t148 -98.5t98.5 -148t36.5 -180t-36.5 -180t-98.5 -148t-148 -98.5t-180 -36.5zM670 560h-87v29q0 13 -8.5 21t-21.5 8h-87q-13 0 -21.5 -8t-8.5 -21v-29h-87q-13 0 -21.5 -8.5t-8.5 -21.5v-29q0 -13 8.5 -21t21.5 -8h319q13 0 21 8t8 21v29q2 11 -6 20.5t-21 9.5zM556 560
h-88v14q0 6 4.5 10.5t10.5 4.5h58q6 0 10.5 -4.5t4.5 -10.5v-14zM351 211q0 -24 17.5 -41.5t41.5 -17.5h202q24 0 41 17.5t17 41.5v232h-319v-232zM571 399q0 5 4.5 9.5t10 4.5t10 -4.5t4.5 -9.5v-173q0 -6 -4.5 -10.5t-10 -4.5t-10 4.5t-4.5 10.5v173zM497 399q0 5 5 9.5
t10 4.5t10 -4.5t5 -9.5v-173q0 -6 -5 -10.5t-10 -4.5t-10 4.5t-5 10.5v173zM424 399q0 5 4.5 9.5t10 4.5t10 -4.5t4.5 -9.5v-173q0 -6 -4.5 -10.5t-10 -4.5t-10 4.5t-4.5 10.5v173z" />
    <glyph glyph-name="icondown" unicode="&#xe606;" horiz-adv-x="1096" 
d="M43 810h1007q14 0 28.5 12.5t14.5 30.5q0 14 -12.5 28.5t-30.5 14.5h-1007q-14 0 -28.5 -12.5t-14.5 -30.5q6 -19 18 -31t25 -12zM1015 733h-929q-40 0 -58.5 -15.5t-17 -36t15.5 -43.5l473 -740q19 -26 56 -26t56 26l473 740q6 15 9 26.5t1.5 25t-9 22.5t-25 15t-45.5 6
z" />
    <glyph glyph-name="iconfinish" unicode="&#xe607;" 
d="M512 896q-139 0 -257 -68.5t-186.5 -186.5t-68.5 -257t68.5 -257t186.5 -186.5t257 -68.5t257 68.5t186.5 186.5t68.5 257t-68.5 257t-186.5 186.5t-257 68.5zM512 -79q-94 0 -180 36.5t-148 98.5t-98.5 148t-36.5 180t36.5 180t98.5 148t148 98.5t180 36.5
q93 0 179 -36.5t148 -98.5t99 -148t37 -180t-36.5 -180t-98.5 -148t-148 -98.5t-180 -36.5zM731 560q-12 0 -26 -10l-254 -256l-132 131q-9 10 -26 10q-15 0 -26 -11t-11 -25q0 -13 10 -27l158 -159q10 -9 27 -9q12 0 27 9l280 281q10 9 10 27q0 17 -10.5 28t-26.5 11z" />
    <glyph glyph-name="iconfocus" unicode="&#xe608;" 
d="M512 896q-139 0 -257 -68.5t-186.5 -186.5t-68.5 -257t68.5 -257t186.5 -186.5t257 -68.5t257 68.5t186.5 186.5t68.5 257t-68.5 257t-186.5 186.5t-257 68.5zM512 -79q-94 0 -180 36.5t-148 98.5t-98.5 148t-36.5 180t36.5 180t98.5 148t148 98.5t180 36.5t180 -36.5
t148 -98.5t98.5 -148t36.5 -180t-36.5 -180t-98.5 -148t-148 -98.5t-180 -36.5zM585 464l-73 154l-71 -154l-161 -24l117 -119l-29 -169l144 78l144 -78l-27 169l117 119z" />
    <glyph glyph-name="iconfocus2" unicode="&#xe609;" 
d="M1024 506l-352 51l-160 339l-157 -339l-355 -51l256 -263l-61 -371l317 176l317 -176l-61 371z" />
    <glyph glyph-name="iconname" unicode="&#xe60a;" 
d="M512 896q-139 0 -257 -68.5t-186.5 -186.5t-68.5 -257t68.5 -257t186.5 -186.5t257 -68.5t257 68.5t186.5 186.5t68.5 257t-68.5 257t-186.5 186.5t-257 68.5zM853 72q-14 98 -83 134q-27 14 -47.5 17.5t-52.5 16.5l-82 37v63q2 2 6.5 7t13 25t11.5 46q10 -3 16 8t6 24
q0 3 1 11.5t1.5 15.5t0 14t-3.5 10.5t-9 1.5q9 50 5 71q-4 42 -34.5 72t-89.5 33q-52 -3 -86 -34.5t-38 -70.5q-1 -13 -0.5 -18t2.5 -24t3 -29q-6 2 -9 -1.5t-3.5 -10.5t0 -14t1.5 -15.5t1 -11.5q0 -14 5 -24.5t17 -7.5q3 -26 11 -45.5t14 -25.5l6 -7v-63q-14 -10 -82 -37
q-33 -13 -53 -15.5t-47 -16.5q-70 -33 -83 -136q-58 63 -90 143.5t-32 168.5q0 94 36.5 180t98.5 148t148 98.5t180 36.5t180 -36.5t148 -98.5t98.5 -148t36.5 -180q0 -90 -32 -170.5t-90 -141.5z" />
    <glyph glyph-name="iconplus" unicode="&#xe60b;" horiz-adv-x="1027" 
d="M992 421h-443v438q0 15 -11 26t-26 11t-26 -11t-11 -26v-438h-438q-15 0 -26 -11t-11 -26t11 -26t26 -11h440v-438q0 -15 11.5 -26t26.5 -11t26 11t11 26v435h437q16 0 27 11t11 26t-11 27.5t-24 12.5z" />
    <glyph glyph-name="iconrowdown" unicode="&#xe60c;" horiz-adv-x="1756" 
d="M1733.5 874q-21.5 22 -51 22t-51.5 -22l-753 -826l-754 826q-22 22 -51 22t-51 -22t-22 -51t22 -51l797 -878q22 -22 58.5 -22t58.5 22l797 878q22 22 22 51t-21.5 51z" />
    <glyph glyph-name="iconrowright" unicode="&#xe60d;" 
d="M781 407l-482 438q-12 12 -28 12t-28 -12t-12 -28t12 -28l454 -414l-454 -409q-12 -12 -12 -28.5t12 -28.5t28 -12t28 12l482 438q12 12 12 32q0 10 -12 28z" />
    <glyph glyph-name="iconrowup" unicode="&#xe60e;" horiz-adv-x="1756" 
d="M1733 -4l-797 878q-22 22 -58.5 22t-58.5 -22l-797 -878q-22 -22 -22 -51t22 -51t51 -22t51 22l754 826l753 -826q22 -22 51.5 -22t51 22t21.5 51t-22 51z" />
    <glyph glyph-name="iconsearch" unicode="&#xe60f;" horiz-adv-x="1028" 
d="M1018 -73l-267 260q112 122 112 285q0 116 -57.5 213.5t-157 154t-218 56.5t-217.5 -56.5t-156 -154t-57 -213t57.5 -213t157.5 -154t218 -56.5q157 0 273 96l267 -263q9 -10 23.5 -10t24.5 10q7 7 6.5 21t-9.5 24zM430.5 113q-99.5 0 -184 48t-133.5 130.5t-49 180.5
t49 181t133.5 131t184 48t183.5 -48t133 -131t49 -181t-49 -180.5t-133 -130.5t-183.5 -48z" />
    <glyph glyph-name="iconsubtasks" unicode="&#xe610;" horiz-adv-x="1350" 
d="M205 806q-49 0 -82 -33t-33 -82t33 -82t82 -33t82 33t33 82t-33 82t-82 33zM205 499q-49 0 -82 -33t-33 -82t33 -82t82 -33t82 33t33 82t-33 82t-82 33zM205 192q-49 0 -82 -33t-33 -82t33 -82t82 -33t82 33t33 82t-33 82t-82 33zM512 614h614q31 0 53.5 22.5t22.5 54
t-22.5 54.5t-53.5 23h-614q-32 0 -54.5 -23t-22.5 -54.5t22.5 -54t54.5 -22.5zM1126 461h-614q-32 0 -54.5 -22.5t-22.5 -54.5t22.5 -54.5t54.5 -22.5h614q31 0 53.5 22.5t22.5 54.5t-22.5 54.5t-53.5 22.5zM1126 154h-614q-32 0 -54.5 -22.5t-22.5 -54t22.5 -54.5t54.5 -23
h614q31 0 53.5 23t22.5 54.5t-22.5 54t-53.5 22.5z" />
    <glyph glyph-name="icontime1" unicode="&#xe611;" 
d="M512 896q-139 0 -257 -68.5t-186.5 -186.5t-68.5 -257t68.5 -257t186.5 -186.5t257 -68.5t257 68.5t186.5 186.5t68.5 257t-68.5 257t-186.5 186.5t-257 68.5zM512 -79q-94 0 -180 36.5t-148 98.5t-98.5 148t-36.5 180t36.5 180t98.5 148t148 98.5t180 36.5t180 -36.5
t148 -98.5t98.5 -148t36.5 -180t-36.5 -180t-98.5 -148t-148 -98.5t-180 -36.5zM797 404h-263v285q0 9 -6.5 15.5t-15.5 6.5h-10q-9 0 -15.5 -6.5t-6.5 -15.5v-307v-10q0 -9 6.5 -15.5t15.5 -6.5h10h285q9 0 15.5 6.5t6.5 15.5v10q0 9 -6.5 15.5t-15.5 6.5z" />
    <glyph glyph-name="icontimecount" unicode="&#xe612;" horiz-adv-x="1214" 
d="M1043 56h-859v190l219 129l209 -141q9 -9 25 -9q14 0 28 9v0l406 281q19 14 19 38q0 19 -14 33t-33 14q-14 0 -28 -10v0l-381 -262l-206 144q-10 9 -25 9q-7 0 -25 -6v0l-194 -116v400q0 19 -14 33t-33 14t-33 -14t-14 -33v-750q0 -19 14 -33t33 -14h906q19 0 33 14
t14 33t-14 33t-33 14v0z" />
    <glyph glyph-name="iconup" unicode="&#xe613;" horiz-adv-x="1093" 
d="M86 35h929q34 0 53 8.5t22.5 23.5t-0.5 30t-14 33l-474 740q-19 26 -55.5 26t-56.5 -26l-473 -740q-10 -17 -13 -33t2.5 -30t25.5 -23t54 -9zM1050 -42h-1007q-14 0 -28.5 -12.5t-14.5 -30.5q0 -14 12.5 -28.5t30.5 -14.5h1007q14 0 28.5 12.5t14.5 30.5q0 19 -12 31
t-31 12z" />
    <glyph glyph-name="iconwarning" unicode="&#xe614;" 
d="M512 896q-139 0 -257 -68.5t-186.5 -186.5t-68.5 -257t68.5 -257t186.5 -186.5t257 -68.5q138 0 256 68.5t187 186.5t69 257t-68.5 257t-186.5 186.5t-257 68.5zM512 -79q-94 0 -180 36.5t-148 98.5t-98.5 148t-36.5 180t36.5 180t98.5 148t148 98.5t180 36.5
q93 0 179 -36.5t148 -98.5t99 -148t37 -180t-36.5 -180t-98.5 -148t-148 -98.5t-180 -36.5zM512 143q22 0 38 15.5t16 37.5h-105q-2 -23 13 -38t38 -15zM688 274q-11 0 -19 8t-8 19v176q0 51 -36.5 87.5t-88.5 36.5q0 11 -7.5 19t-18.5 8t-19 -8t-8 -19q-51 0 -88 -36.5
t-37 -87.5v-176q0 -11 -7.5 -19t-18.5 -8t-19 -8t-8 -19t8 -18.5t19 -7.5h353q11 0 19 7.5t8 18.5q2 11 -5.5 19t-18.5 8z" />
    <glyph glyph-name="tongbu" unicode="&#xe633;" 
d="M512 -66q-91 0 -174.5 36t-143.5 96t-96 143.5t-36 174.5t36 174.5t96 143.5t143.5 96t174.5 36t174.5 -36t143.5 -96t96 -143.5t36 -174.5t-36 -174.5t-96 -143.5t-143.5 -96t-174.5 -36v0zM422 485q-8 8 -19 8h-80q-10 0 -17 -6.5t-7 -16.5t7 -16.5t17 -6.5h69l42 -51
l31 37l-43 52v0zM627 533v-40v0h-80q-11 0 -19 -8l-136 -163h-69q-10 0 -17 -7t-7 -17t7 -16.5t17 -6.5h80q11 0 19 8l136 164h69v0v-39l96 62l-96 63v0zM627 361v-39v0h-69l-42 50l-31 -37l43 -52q8 -8 19 -8h80v0v-39l96 62l-96 63v0z" />
    <glyph glyph-name="iconrowrback" unicode="&#xe615;" 
d="M212 386q0 -21 13 -34l514 -467q13 -13 30 -13t30 13t13 30t-13 30l-484 437l484 441q13 13 13 30t-13 30t-30 13t-30 -13l-514 -467q-13 -19 -13 -30z" />
    <glyph glyph-name="yanjing" unicode="&#xe6ae;" 
d="M512 647q-60 0 -117 -15t-100.5 -40t-82 -54.5t-65.5 -59t-46 -54t-28.5 -40l-9.5 -15.5q4 -5 10.5 -14t29.5 -34.5t48.5 -49t66 -52t83 -49t98.5 -34.5t113 -14t113 13.5t99 35.5t82 48.5t66.5 52.5t47.5 48t30.5 35.5l10.5 13.5q-3 6 -9 16t-26 39t-44 55t-63 58
t-82 55.5t-102.5 39t-122.5 15.5zM512 226q-67 0 -114.5 46.5t-47.5 112t47.5 111.5t114.5 46t114.5 -46t47.5 -111.5t-47.5 -112t-114.5 -46.5zM512 449q-29 0 -50 -20.5t-21 -50t21 -50t50 -20.5t50 20.5t21 50t-21 50t-50 20.5z" />
    <glyph glyph-name="wrong" unicode="&#xe617;" horiz-adv-x="1025" 
d="M512 848q94 0 180 -37t148 -99t99 -148t37 -180t-37 -180t-99 -148t-148 -99t-180 -37t-180 37t-148 99t-99 148t-37 180t37 180t99 148t148 99t180 37zM512 896q-139 0 -257 -68.5t-186.5 -186.5t-68.5 -257t68.5 -257t186.5 -186.5t257 -68.5t257 68.5t186.5 186.5
t68.5 257t-68.5 257t-186.5 186.5t-257 68.5v0zM738 203l-181 181l181 181q10 9 10 22.5t-9.5 23t-23 9.5t-22.5 -10l-181 -181l-181 181q-9 10 -22.5 10t-23 -9.5t-9.5 -23t10 -22.5l181 -181l-181 -181q-10 -9 -10 -22.5t9.5 -23t23 -9.5t22.5 10l181 181l181 -181
q9 -10 22.5 -10t23 9.5t9.5 23t-10 22.5z" />
    <glyph glyph-name="wenhao" unicode="&#xe635;" 
d="M512 239q-27 0 -46 -19t-19 -46t19 -46t46 -19t46 19t19 46t-19 46t-46 19zM511 647q-65 0 -106 -41q-42 -41 -43 -97q0 -16 17.5 -21.5t36 -1.5t20.5 13q2 14 10 32t18 27q20 20 51 20q32 0 50.5 -19t18.5 -45q0 -19 -10 -35q-7 -10 -42.5 -42t-46.5 -58
q-12 -25 -12 -65v-22h73q0 38 6 52.5t31 37.5q49 46 64 72.5t15 56.5q0 54 -41 95t-110 41v0zM512 834q-91 0 -174.5 -35.5t-144 -96t-96 -144t-35.5 -174.5t35.5 -174.5t96 -144t144 -96t174.5 -35.5t174.5 35.5t144 96t96 144t35.5 174.5t-35.5 174.5t-96 144t-144 96
t-174.5 35.5zM511.5 -9q-106.5 0 -197 53t-143.5 143.5t-53 197t53 197t143.5 143.5t197 53t197.5 -53t143.5 -143.5t52.5 -197t-52.5 -197t-143.5 -143.5t-197.5 -53z" />
    <glyph glyph-name="ppt" unicode="&#xe696;" 
d="M623 4v89h291v43h-291v70h291v43h-291v108q43 -44 104 -44q62 0 105.5 44.5t43.5 107.5h-149v151q-61 0 -104 -44v193h401v-761h-401zM749 640v-151h149q0 62 -44 106.5t-105 44.5zM0 785l576 111v-1024l-576 111v802zM153 159h89v154q0 1 10 -0.5t27 1.5t37 6.5t41 15.5
t38.5 27.5t30.5 43.5t16 62v13.5t-5 30t-14.5 39t-32 34t-53.5 22.5q-20 3 -66 3t-82 -1l-36 -2v-449zM341 461q1 -22 -9.5 -37.5t-26.5 -23t-32 -11.5t-27 -5h-11v154q60 -6 82 -19.5t24 -57.5z" />
    <glyph glyph-name="pdf" unicode="&#xe69a;" 
d="M623 3v89h312v44h-312v68h312v44h-312v69h312v43h-312v69h312v43h-312v69h312v44h-312v70h312v43h-312v67h401v-762h-401zM0 257v530l577 109v-673v-351l-577 109v276zM41 151q13 -28 35 -14q57 58 86 130q28 8 85.5 22.5t89.5 23.5q1 0 32.5 -14.5t69.5 -23t74 -2.5
q11 3 9 15q-13 4 -55 8.5t-71 18.5q-4 1 -9 4q-4 3 1 4q85 3 139 -11q-13 25 -34 33t-43.5 4t-48.5 -5.5t-47 1.5q-30 8 -54 33.5t-36 58t-16.5 68.5t6.5 65q-5 -10 -14 -50q-3 -9 -5 -4q-21 98 -8 133q8 6 11 2q8 -8 11 -15.5t5 -25.5q5 -14 7 1v4q2 20 -10 42q-8 14 -28 6
q-8 -3 -14 -17q-7 -35 2 -94t5 -86q-9 -64 -66 -178t-94 -137q5 23 15 39t25.5 32.5t23.5 28.5q-63 -31 -78 -80q-4 -13 -1 -20z" />
    <glyph glyph-name="iconfinish3" unicode="&#xe616;" 
d="M512 -128q-139 0 -257 68.5t-186.5 186.5t-68.5 257t68.5 257t186.5 186.5t257 68.5t257 -68.5t186.5 -186.5t68.5 -257t-68.5 -257t-186.5 -186.5t-257 -68.5zM512 847q-94 0 -180 -36.5t-148 -98.5t-98.5 -148t-36.5 -180t36.5 -180t98.5 -148t148 -98.5t180 -36.5
t180 36.5t148 98.5t98.5 148t36.5 180t-36.5 180t-98.5 148t-148 98.5t-180 36.5zM427 491q0 -13 7 -17l61 -61q7 -7 17 -7q13 0 17 7l61 61q7 8 7 17q0 11 -8 19t-18 8q-14 0 -18 -7l-17 -17v161q0 11 -7.5 18.5t-18.5 7.5t-19 -7.5t-8 -18.5v-161l-17 17q-8 7 -17 7
q-8 -2 -15 -10t-7 -17zM783 406l-69 178q-4 17 -24 17h-129v-51h109l49 -129h-83q-11 0 -18.5 -8t-7.5 -19v-27h-205v27q0 11 -8 19t-19 8h-83l49 129h109v51h-129q-16 0 -24 -17l-68 -178q0 -1 -1.5 -4t-1.5 -6v-163q0 -11 8 -19t19 -8h495q11 0 19 8t8 19v163q11 4 5 10z
" />
    <glyph glyph-name="iconanli" unicode="&#xe61d;" 
d="M722 135h-420q-12 0 -20.5 -9t-8.5 -21q0 -11 9 -20t20 -9h422q13 0 21 9t8 20q0 12 -9.5 21t-21.5 9zM722 286h-420q-12 0 -20.5 -9t-8.5 -20t9 -20.5t20 -9.5h422q13 0 21 9t8 21q0 11 -9.5 20t-21.5 9zM722 435h-420q-12 0 -20.5 -9t-8.5 -21t9 -20.5t20 -8.5h422
q13 0 21 9t8 20q0 13 -9 21.5t-22 8.5zM814 737h-90v61h-80q-21 28 -54.5 44.5t-75 16.5t-75 -16.5t-54.5 -44.5h-80v-61h-95q-50 0 -85 -35t-35 -85v-602q0 -49 35 -84t85 -35h602q49 0 84 35t35 84v600q2 51 -32.5 86.5t-84.5 35.5zM361 737h66q0 26 24 43.5t58.5 17.5
t58.5 -17.5t24 -43.5h66v-120h-297v120zM873 13q0 -26 -18 -43.5t-43 -17.5h-602q-26 0 -43.5 17.5t-17.5 43.5v602q0 26 17.5 43.5t43.5 17.5h90v-120h422v120h90q25 0 43 -17.5t18 -43.5v-602z" />
    <glyph glyph-name="iconduihua" unicode="&#xe61f;" 
d="M270.5 496q-25.5 0 -43 -18t-17.5 -43.5t17.5 -43t43 -17.5t43.5 17.5t18 43t-18 43.5t-43.5 18zM512 496q-26 0 -43.5 -18t-17.5 -43.5t17.5 -43t43.5 -17.5t43.5 17.5t17.5 43t-17.5 43.5t-43.5 18zM512 859q-131 0 -242 -57t-176 -154t-65 -211q0 -98 48 -183.5
t133 -145.5v-215l212 130q44 -8 90 -8q131 0 242 57t176 154t65 211t-65 211t-176 154t-242 57zM512 74q-46 0 -102 12l-142 -85l3 139q-84 50 -132.5 127.5t-48.5 167.5q0 98 57 181t154 131t211 48t211 -48t154 -131t57 -181t-56.5 -181t-153.5 -131.5t-212 -48.5z
M753.5 496q-25.5 0 -43.5 -18t-18 -43.5t18 -43t43.5 -17.5t43 17.5t17.5 43t-17.5 43.5t-43 18z" />
    <glyph glyph-name="iconzhinan" unicode="&#xe61e;" 
d="M883 874q-181 -49 -342 -93h-61q-156 42 -339 93v0q-51 0 -87.5 -36.5t-36.5 -87.5v-651q0 -47 33.5 -76.5t90.5 -48.5q167 -46 339 -92h64l341 92q54 15 89 46t35 79v651q-1 51 -38 87.5t-88 36.5zM480 -55q-336 93 -341 93q-61 17 -61 61v651q0 25 17.5 43t43.5 18
l341 -93v-773v0zM946 99q0 -42 -61 -61q-169 -47 -341 -93v773l341 93q26 0 43.5 -18t17.5 -43v-651z" />
    <glyph glyph-name="bianji1" unicode="&#xe6b8;" 
d="M512 824q90 0 171 -35q79 -33 140 -94t94 -140q35 -81 35 -171t-35 -171q-33 -79 -94 -140t-140 -94q-81 -35 -171 -35t-171 35q-79 33 -140 94t-94 140q-35 81 -35 171t35 171q33 79 94 140t140 94q81 35 171 35zM512 881q-101 0 -193 -39.5t-158.5 -106t-106 -158.5
t-39.5 -193t39.5 -193t106 -158.5t158.5 -106t193 -39.5t193 39.5t158.5 106t106 158.5t39.5 193t-39.5 193t-106 158.5t-158.5 106t-193 39.5v0zM609 591q31 -30 102 -102q-53 -54 -155 -154.5t-121 -119.5l-52 52l-50 50l1 1l1 1l1 1l1 1l1 1l1 1l1 1l1 1l1 1l1 1l1 1l1 1
l1 1l1 1l1 1l1 1l1 1l1 1l1 1l1 1l1 1l1 1l1 1l1 1l1 1l1 1l1 1l1 1l1 1l1 1l1 1l1 1l1 1l1 1l1 1l1 1l1 1l1 1l1 1l1 1l1 1l1 1l1 1l1 1l1 1l1 1l1 1l1 1l1 1l1 1l1 1h1l1 1l1 1l1 1l1 1l1 1l1 1l1 1l1 1l1 1l1 1l1 1l1 1l1 1l1 1l1 1l1 1l1 1l1 1l1 1l1 1l1 1l1 1l1 1l1 1
l1 1l1 1l1 1l1 1l1 1l1 1l1 1l1 1l1 1l1 1l1 1l1 1l1 1l1 1l1 1l1 1l1 1l1 1l1 1l1 1l1 1l1 1l1 1l1 1l1 1l1 1l1 1l1 1l1 1l1 1l1 1l1 1l1 1l1 1l1 1l1 1l1 1l1 1l1 1l1 1l1 1l1 1l1 1l1 1l1 1l1 1l1 1l1 1l1 1l1 1l1 1l1 1l1 1l1 1l1 1l1 1l1 1l1 1l1 1l1 1l1 1l1 1l1 1
l1 1l1 1l1 1l1 1l1 1l1 1l1 1l1 1l1 1l1 1l1 1l1 1l1 1l1 1l1 1l1 1l1 1l1 1l1 1l1 1l1 1l1 1l1 1l1 1l1 1l1 1l1 1l1 1l1 1l1 1l1 1l1 1l1 1l1 1l1 1l1 1l1 1l1 1l1 1l1 1l1 1l1 1l1 1l1 1l1 1l1 1l1 1l1 1l1 1l1 1l1 1l1 1l1 1l1 1l1 1l1 1l1 1l1 1l1 1l1 1l1 1l1 1l1 1
l1 1l1 1l1 1l1 1l1 1l1 1l1 1l1 1l1 1h1l1 1l1 1l1 1l1 1l1 1l1 1l1 1l1 1l1 1l1 1l1 1l1 1l1 1l1 1l1 1l1 1l1 1l1 1l1 1l1 1l1 1l1 1l1 1l1 1l1 1l1 1l1 1l1 1l1 1l1 1l1 1l1 1l1 1l1 1l1 1l1 1l1 1l1 1l1 1l1 1l1 1l1 1l1 1l1 1l1 1l1 1l1 1l1 1l1 1l1 1l1 1l1 1l1 1l1 1
l1 1l1 1l1 1l1 1l1 1l1 1l1 1l1 1zM731 511q-80 82 -102 102l2 3q35 35 47 46q14 14 32 14t32 -14q16 -16 38 -37q14 -15 14 -32.5t-14 -32.5l-21 -21l-25 -25zM251 132q51 136 61 163q6 -8 19 -19.5t21 -20.5t19 -19.5t21 -21t20 -19.5q-103 -41 -161 -64v1z" />
    <glyph glyph-name="iconadd" unicode="&#xe621;" 
d="M512 872q-101 0 -194 -40t-159.5 -107t-106.5 -159.5t-40 -194t40 -194t106.5 -159.5t159.5 -106.5t194 -39.5t194 39.5t159.5 106.5t106.5 159.5t40 194t-40 194t-106.5 159.5t-159.5 107t-194 40zM512 -104q-97 0 -185 37.5t-151.5 101.5t-101 152t-37.5 185t37.5 185
t101 151.5t151.5 101t185 37.5t185 -37.5t151.5 -101t101 -151.5t37.5 -185t-37.5 -185t-101 -152t-151.5 -101.5t-185 -37.5zM751 391h-219v195q0 8 -6.5 14t-13.5 6t-13.5 -6t-6.5 -14v-195h-219q-7 0 -13 -6t-6 -13.5t6 -13.5t13 -6h219v-244q0 -7 6.5 -13t13.5 -6
t13.5 6t6.5 13v244h219q7 0 13 6t6 14t-5 13.5t-14 5.5z" />
    <glyph glyph-name="icondingding" unicode="&#xe622;" 
d="M908 507q-2 -7 -12 -31v0v-3q-16 -33 -48 -89t-56 -96l-24 -39v0l-27 -49h131l-249 -328l56 225h-102l36 149q-35 -9 -103 -29q-3 -1 -7 -2.5t-19 -2t-32 4.5t-44 21t-55 42l-25 25q-33 41 -4 52q11 5 135 22q31 4 59.5 8t41 5.5l12.5 1.5q-215 -3 -268 4q-37 6 -78 59.5
t-52 110.5l-3 13q1 22 49 8q30 -8 116.5 -27t157 -33.5t71.5 -14.5q-362 112 -386 138q-21 23 -45 95.5t-20 124.5q0 2 1 5t6.5 7t13.5 2q269 -123 452 -190q31 -12 76 -27.5t72.5 -25t61 -23t52.5 -24.5t36 -25t22.5 -30t0.5 -34v0v0zM908 507z" />
    <glyph glyph-name="iconmail" unicode="&#xe623;" 
d="M15 723q-15 -15 -15 -34v-607q0 -20 12 -32l312 373zM1007 723q-12 12 -32 12h-926q-20 0 -32 -12l495 -388zM512 240l-129 127l-366 -322q12 -12 32 -12h926q20 0 32 12l-366 322zM1009 723l-312 -302l312 -373q13 16 13 31v610q3 18 -13 34z" />
    <glyph glyph-name="iconmobile" unicode="&#xe624;" 
d="M678 896h-332q-56 0 -96 -40t-40 -97v-748q0 -57 40 -97t96 -40h332q56 0 96 40t40 97v748q2 57 -38.5 97t-97.5 40zM529 -62h-34q-17 0 -28 11t-11 27.5t11 28t28 11.5h34q17 0 28 -11.5t11 -28t-11 -27.5t-28 -11zM734 77h-441v736h441v-736z" />
    <glyph glyph-name="zanting" unicode="&#xe671;" 
d="M512 896q-138 0 -256 -69t-187 -187t-69 -256t69 -256t187 -187t256 -69t256 69t187 187t69 256t-69 256t-187 187t-256 69zM454 173q0 -14 -12.5 -23t-32 -9t-32 9t-12.5 23v422q0 14 12.5 23t32 9t32 -9t12.5 -23v-422zM666 173q0 -14 -13 -23t-32.5 -9t-32 9t-12.5 23
v422q0 14 12.5 23t32 9t32.5 -9t13 -23v-422z" />
    <glyph glyph-name="iconchuangjianren" unicode="&#xe619;" 
d="M512 -128q-104 0 -198 40.5t-162.5 108.5t-109 162.5t-40.5 198t40.5 198t109 162.5t162.5 108.5t198 40.5t198 -40.5t162.5 -108.5t109 -162.5t40.5 -198t-40.5 -198t-109 -162.5t-162.5 -108.5t-198 -40.5zM512 843q-94 0 -179.5 -36.5t-147 -98.5t-98 -147.5
t-36.5 -179t36.5 -179t98 -147t147 -98t179.5 -36.5t179.5 36.5t147 98t98 147t36.5 179t-36.5 179t-98 147.5t-147 98.5t-179.5 36.5zM417 607l-1 1l-1 1l-1 1l-1 2l-1 1l-1 1l-1 1h-1l-1 1l-1 1v1l-1 1l-1 1l-1 1l-1 1l-1 1l-2 1q0 3 3 5l10 19l-39 10q-15 -49 -49 -104
q-44 -63 -111 -107q14 -11 24 -31q50 37 85 79t65 103q22 -22 51 -54q39 -44 90 -109l32 29q-105 108 -144 143zM483 185q-12 -12 -87 -12q-37 0 -49 2q-12 0 -22 5q-7 4 -7 20v216h133q-2 -74 -6.5 -92t-24.5 -18q-24 0 -49 5q3 -7 8 -36q17 -3 41 -3q31 0 44 9t16 33
q2 9 8 60q4 72 5 76q-15 -3 -47 -3h-123q-29 0 -42 3q0 -7 1.5 -22.5t1.5 -24.5v-213q0 -18 4 -26.5t15 -12.5q23 -10 90 -10q63 0 87 5q23 3 37 17q18 22 22 85q-26 8 -39 17q-4 -42 -7 -57.5t-10 -22.5zM575 255h44q-3 15 -3 66v226q0 48 3 63h-44q3 -17 3 -63v-226
q0 -49 -3 -66zM692 648q4 -33 4 -70v-395q0 -12 -5 -16t-21 -4q-12 0 -75 5q7 -23 9 -39q32 -2 66 -2q36 0 48 10t12 41v400q0 56 5 70h-43z" />
    <glyph glyph-name="share" unicode="&#xe67b;" 
d="M635 277q-32 0 -54.5 -22.5t-22.5 -54.5t22.5 -54t54.5 -22t54.5 22t22.5 54t-22.5 54.5t-54.5 22.5zM512 843q-93 0 -178 -36t-146.5 -97.5t-98 -147t-36.5 -178.5t36.5 -178.5t98 -147t146.5 -97.5t178 -36t178 36t146.5 97.5t98 147t36.5 178.5t-36.5 178.5t-98 147
t-146.5 97.5t-178 36zM635 93q-44 0 -75.5 31.5t-31.5 75.5q0 14 5 31l-88 66q-36 -36 -86 -36t-86 36t-36 87t36 87t86.5 36t86.5 -37l82 75q-15 26 -15 53q0 45 31 76.5t75.5 31.5t76 -31.5t31.5 -76t-31.5 -76t-75.5 -31.5q-42 0 -74 30l-81 -75q17 -30 17 -62
q0 -33 -18 -63l82 -62q32 48 89 48q44 0 75.5 -31t31.5 -75.5t-31.5 -76t-75.5 -31.5zM360 476q-38 0 -65 -27t-27 -65t26.5 -65t65 -27t65 27t26.5 65t-26.5 65t-64.5 27zM567 544q22 -22 53 -22t53.5 22.5t22.5 54t-22.5 54t-54 22.5t-54 -22.5t-22.5 -54.5q0 -30 22 -52z
" />
    <glyph glyph-name="49" unicode="&#xe665;" 
d="M725 85q0 -88 -62.5 -150.5t-150.5 -62.5t-150.5 62.5t-62.5 150.5v657q0 63 45 108.5t108 45.5t108.5 -45t45.5 -109v-638q0 -38 -27 -65t-65.5 -27t-65 27t-26.5 65v498q0 9 5.5 15t14.5 6v0q9 0 15 -6t6 -15v-498v0q0 -20 14.5 -34.5t34.5 -14.5q21 0 36 14.5t15 36.5
v636q0 46 -32.5 78.5t-78.5 32.5t-78.5 -32.5t-32.5 -78.5v0v-658v0q0 -72 50.5 -122.5t122 -50.5t122 50.5t50.5 122.5v0v549q0 9 6 15t15 6v0q9 0 14.5 -6t5.5 -15v-548h-2z" />
    <glyph glyph-name="iconzerenren" unicode="&#xe61a;" 
d="M512 -128q-139 0 -257 68.5t-186.5 186.5t-68.5 257t68.5 257t186.5 186.5t257 68.5t257 -68.5t186.5 -186.5t68.5 -257t-68.5 -257t-186.5 -186.5t-257 -68.5zM512 847q-94 0 -180 -36.5t-148 -98.5t-98.5 -148t-36.5 -180t36.5 -180t98.5 -148t148 -98.5t180 -36.5
t180 36.5t148 98.5t98.5 148t36.5 180t-36.5 180t-98.5 148t-148 98.5t-180 36.5zM490 616q0 36 -2 48h39q-5 -29 -5 -48h146q24 0 54 4v-36q-15 2 -54 2h-146v-41h127q34 0 48 2v-36q-14 2 -48 2h-127v-49h173q29 0 53 5v-39q-12 3 -51 3h-370q-25 0 -54 -5v39q24 -5 54 -5
h163v49h-117q-9 0 -25.5 -1.5t-23.5 -1.5v37q15 -3 49 -3h117v42h-139q-41 0 -54 -3v37q30 -5 57 -5h136v3zM280 143v0q33 0 75 9t72 22q68 33 68 120q0 22 -3 31h40q0 -12 -3 -19q-3 -62 -15 -88q-17 -47 -73 -75q-31 -16 -95 -32q-6 0 -53 -7q-4 18 -17 36h4v3zM339 201
q5 39 5 68v59q0 46 -3 66q17 -3 61 -3h217q44 0 61 3q-2 -15 -2 -61v-61q0 -54 2 -68h-41q5 39 5 68v85h-266v-88q0 -13 1 -37.5t1 -30.5h-41zM544 204q66 -17 197 -61l-14 -39q-95 39 -195 65z" />
    <glyph glyph-name="iconcuiban" unicode="&#xe61b;" 
d="M512 191q-94 0 -174 46.5t-126.5 126t-46.5 174t46.5 174.5t126.5 126t174 46t174 -46t126.5 -126t46.5 -174.5t-46.5 -174t-126.5 -126t-174 -46.5zM512 851q-130 0 -222 -91.5t-92 -221.5t92 -222t222 -92t222 92t92 222t-92 221.5t-222 91.5zM512 372q15 0 25.5 11
t10.5 26h-71q-1 -15 9.5 -26t25.5 -11zM630.5 462q-7.5 0 -12.5 5t-5 13v119q0 34 -25 59t-59 25q0 7 -5.5 12.5t-13 5.5t-13 -5.5t-5.5 -12.5q-35 0 -59.5 -25t-24.5 -59v-119q0 -8 -5.5 -13t-13 -5t-12.5 -5.5t-5 -13t5 -13t13 -5.5h239q8 0 13 5.5t5 12.5q2 8 -3.5 13.5
t-13 5.5zM291 -36q0 5 -5 15l-2 4q31 45 46 104l15 -4q-6 -23 -18 -52v-159h-13v130q-3 -4 -23 -38zM365 -128v101q-1 -2 -18 -23q-1 1 -4 5t-4 6q26 29 46 71l13 -3q-2 -4 -6 -11.5t-6 -11.5h52q-2 4 -7 11.5t-7 9.5l14 5q1 -1 5 -8q8 -11 8 -13l-10 -7h61v-11h-58v-25h53
v-12h-53v-25h53v-9h-53v-24h60v-11h-124v-15h-15zM362 36v42h15v-31h43v40h14v-40h45v31h15v-42h-132zM380 -7v-25h51v25h-51zM380 -44v-25h51v25h-51zM380 -78v-24h51v24h-51zM532 -64q-4 2 -9 5t-6 4q18 25 30 61l15 -5q-15 -37 -30 -65zM532 -126l-3 3l-4 4l-3 3t-2 1
q45 28 58 56q16 29 18 90h-67v14h67q0 7 2 12q0 6 1 16t1 14h16q0 -22 -2 -42h80q-3 -85 -5 -122q0 -45 -43 -43q-5 0 -16.5 -0.5t-18.5 -0.5q0 1 -1 4.5t-1 6.5q-1 3 -1 7q2 0 14.5 -1t21.5 -1q30 -2 30 30v8q2 62 5 99h-66q0 -114 -81 -158zM725 -57q-15 32 -30 55l14 6
q0 -1 2 -5t4 -6q8 -13 23 -43z" />
    <glyph glyph-name="iconguanzhu" unicode="&#xe620;" 
d="M512 191q-94 0 -174 46.5t-126.5 126t-46.5 174t46.5 174.5t126.5 126t174 46t174 -46t126.5 -126t46.5 -174.5t-46.5 -174t-126.5 -126t-174 -46.5zM512 851q-130 0 -222 -91.5t-92 -221.5t92 -222t222 -92t222 92t92 222t-92 221.5t-222 91.5zM669 590l-107 17l-50 104
l-50 -104l-107 -17l78 -80l-18 -114l97 54l97 -54l-18 114zM304 27v13h106q28 35 36 48l15 -6q-5 -8 -15 -20q-13 -17 -17 -22h58v-13h-84q0 -26 -2 -44h99v-14h-95q19 -61 97 -79l-8 -15q-80 25 -99 83q-13 -55 -96 -84q-2 2 -5 6t-5 7q87 27 94 82h-92v14h92q3 23 3 44
h-82zM358 42q-23 30 -31 38l13 7q2 -2 32 -37zM553 -17q-3 3 -6 5q-22 19 -32 24l10 12q2 -2 8 -5l18 -13.5t12 -9.5zM538 -126l-14 5q15 38 26 81q2 -2 12 -5l1 -1t2 -1zM565 40q-5 5 -10 9l-28 21l10 12q1 -1 7 -5.5t9 -7.5q6 -4 13 -10t9 -7zM581 34v15h71
q-1 4 -5.5 16.5t-7.5 19.5l15 5l10 -23q1 -3 3 -7.5t2 -5.5l-15 -5h73v-15h-66v-56h59v-15h-59v-65h72v-13h-165v13h79v65h-59v15h59v56h-66z" />
    <glyph glyph-name="iconguidang" unicode="&#xe625;" 
d="M512 191q-94 0 -174 46.5t-126.5 126t-46.5 174t46.5 174.5t126.5 126t174 46t174 -46t126.5 -126t46.5 -174.5t-46.5 -174t-126.5 -126t-174 -46.5zM512 851q-130 0 -222 -91.5t-92 -221.5t92 -222t222 -92t222 92t92 222t-92 221.5t-222 91.5zM695 551l-46 120
q-3 12 -16 12h-88v-35h74l33 -87h-56q-7 0 -12.5 -5.5t-5.5 -12.5v-19h-139v19q0 7 -5 12.5t-13 5.5h-56l33 87h74v35h-87q-11 0 -17 -12l-46 -120q0 -1 -1 -3t-1 -4v-110q0 -8 5.5 -13.5t13.5 -5.5h335q7 0 12.5 5.5t5.5 13.5v110q6 4 3 7zM454 609q0 -9 5 -12l41 -41
q5 -5 12 -5q9 0 12 5l41 41q5 5 5 12t-5.5 12.5t-12.5 5.5q-9 0 -12 -5l-11 -12v109q0 8 -5.5 13t-13 5t-13 -5t-5.5 -13v-109l-11 12q-5 5 -12 5q-15 -4 -15 -18zM296 -72v137h15v-137h-15zM314 -128l-13 12q28 23 33 46q8 25 8 76v82h15v-82q0 -55 -9 -83q-7 -26 -34 -51z
M367 -105v12h104v72h-91v14h92v62h-97v15h112v-190h-15v15h-105zM517 29v13h31v45h14v-45h29v-13h-29v-40l5 7q2 -2 5 -4.5t7.5 -6.5t8.5 -7q5 -4 10 -9l-10 -11l-8 8q-13 13 -18 17v-111h-15v126q-10 -36 -30 -67q-2 5 -4 11t-3 8q23 29 35 79h-28zM590 -115v13h117v40
h-109v13h109v40h-112v13h56v83h15v-81h56v-134h-15v13h-117zM619 24q-19 30 -29 43l11 6q1 0 3 -3t4 -5q10 -12 25 -34zM695 24l-11 8q1 2 1 4q20 24 30 39l13 -8q-15 -23 -33 -43z" />
    <glyph glyph-name="iconshanchu" unicode="&#xe626;" 
d="M512 191q-94 0 -174 46.5t-126.5 126t-46.5 174t46.5 174.5t126.5 126t174 46t174 -46t126.5 -126t46.5 -174.5t-46.5 -174t-126.5 -126t-174 -46.5zM512 851q-130 0 -222 -91.5t-92 -221.5t92 -222t222 -92t222 92t92 222t-92 221.5t-222 91.5zM621 657h-59v19
q0 9 -6 14.5t-14 5.5h-60q-8 0 -14 -5.5t-6 -14.5v-19h-59q-9 0 -14.5 -6t-5.5 -14v-20q0 -9 5.5 -14.5t14.5 -5.5h216q9 0 14.5 5.5t5.5 14.5v20q0 7 -5.5 13.5t-12.5 6.5zM542 657h-60v9q0 4 3 7t7 3h40q4 0 7 -3t3 -7v-9zM403 420q0 -16 12 -27.5t28 -11.5h137
q16 0 27.5 11.5t11.5 27.5v157h-216v-157zM552 548q0 3 3 6t6.5 3t6.5 -3t3 -6v-118q0 -3 -3 -6.5t-6.5 -3.5t-6.5 3.5t-3 6.5v118zM502 548q0 3 3 6t7 3t7 -3t3 -6v-118q0 -3 -3 -6.5t-7 -3.5t-7 3.5t-3 6.5v118zM453 548q0 3 3 6t6.5 3t6.5 -3t3 -6v-118q0 -3 -3 -6.5
t-6.5 -3.5t-6.5 3.5t-3 6.5v118zM367 -126q-4 3 -7 5l-3 3q19 24 16 86v11h-21v-81q0 -16 -18 -16l-15 -2q0 7 -2 12v1h12q10 0 10 9v77h-22v-11q3 -66 -20 -96q-6 7 -11 8q20 29 18 86v12h-17v13h17v84h49v-84h22v84h51v-84h15v-13h-15v-85q0 -9 -4 -13.5t-14 -4.5h-15
q0 4 -2 7q0 2 -0.5 4t-0.5 3h13q12 0 12 8v81h-25v-12q-3 -65 -23 -92zM317 67v-73h23v73h-23zM386 67v-73h25v73h-25zM448 -123q0 2 -4 15q4 0 11 -1t11 -1q16 0 16 13v185h13v-186q0 -25 -23 -25h-24zM448 -75v145h13v-145h-13zM529 -126v204h66v-14l-24 -63
q22 -31 22 -58q0 -31 -23 -31q-2 0 -8.5 -1t-9.5 -1q0 3 -2 5q0 3 -1 6.5t-1 5.5q3 0 8 -1t9 -1q15 0 15 20q0 26 -22 54l23 65h-38v-192h-14v2zM730 6q-42 23 -66 61q-19 -35 -64 -65l-9 14q49 29 71 74l15 -3l-3 -9q25 -40 66 -59l-3 -7zM601 -110l-11 10q18 17 34 43
l12 -7q-5 -10 -14 -22t-21 -24zM619 1v13h88v-13h-36v-32h59v-13h-59v-56q0 -11 -5.5 -17t-16.5 -6h-23q0 5 -2 7q0 1 -0.5 4t-0.5 4q2 0 8 -1t10 -1q15 0 15 13v53h-55v13h55v32h-37zM723 -108q-23 26 -34 41l11 8q17 -16 28 -31q4 -5 9 -10z" />
    <glyph glyph-name="iconwancheng" unicode="&#xe627;" 
d="M512 189q-94 0 -174 46t-126 126t-46 174t46 173.5t126 126t174 46.5t174 -46.5t126 -126t46 -173.5t-46 -174t-126 -126t-174 -46zM512 848q-130 0 -221.5 -91.5t-91.5 -221.5t91.5 -221.5t221.5 -91.5t221.5 91.5t91.5 221.5t-91.5 221.5t-221.5 91.5zM660 654
q-8 0 -18 -7l-171 -173l-89 89q-7 7 -18 7q-10 0 -17.5 -7.5t-7.5 -17.5q0 -8 6 -18l108 -108q6 -6 18 -6q8 0 18 6l190 190q6 7 6 18t-7.5 19t-17.5 8zM293 -46v14h206v-14h-73v-44q0 -19 18 -17h22q17 0 20 12q1 4 1.5 12t1.5 13q10 -3 15 -5q0 -4 -2 -5q0 -12 -3 -22
q-3 -19 -33 -19h-27q-16 0 -23 6t-6 20v48h-43q2 -59 -71 -81l-10 13q38 12 51 25q13 12 15 43h-59v1zM298 22v40h94q0 1 -7 14l-1.5 4.5t-1 2.5t-0.5 2l15 3l11 -23q0 -1 1 -2l1 -1l-8 -2h92v-38h-15v26h-165v-26h-16zM319 2v13h155v-13h-155zM703 -125q-24 -2 -41 40
q-14 -16 -43 -36q-3 1 -3 3q-1 1 -2.5 3t-3 3t-2.5 2q31 23 47 41q-12 38 -14 101h-89v-36h64q0 -15 -3 -61q0 -33 -30 -33h-22q0 8 -3 15q3 0 10.5 -1t11.5 -1q18 0 18 18q0 3 0.5 14t0.5 19q0 4 1 9t1 6h-49q0 -41 -5 -63q0 -16 -19 -44q-1 0 -6 5q-2 0 -4 2.5t-3 2.5
q16 23 18 42q5 20 5 66v53h103q0 7 -1 21t-1 22h15q0 -12 1 -21q0 -19 2 -22h76v-15h-76q3 -58 12 -87q17 23 36 64l13 -6q-16 -41 -44 -76q12 -37 28 -37q8 0 13 12q0 2 3 18q0 3 1 6.5t1 5.5q10 -4 13 -5q-3 -22 -7 -30q-2 -20 -23 -20zM707 52q-1 0 -4 2t-5 4
q-6 6 -23 17l8 8q17 -10 33 -23z" />
    <glyph glyph-name="iconplus-copy" unicode="&#xe628;" horiz-adv-x="1027" 
d="M825 750l-313 -313l-309 309q-11 11 -26.5 11t-26.5 -11t-11 -26.5t11 -26.5l309 -309l-309 -309q-11 -11 -11 -26.5t11 -26.5t26.5 -11t26.5 11l311 311l309 -309q11 -11 26.5 -11t26.5 11t11 26.5t-11 26.5l-307 307l309 309q11 11 11 26.5t-11 26.5t-27.5 12t-25.5 -8
z" />
    <glyph glyph-name="biaoqian" unicode="&#xe636;" 
d="M733 546q0 36 -26 62.5t-63 26.5h-71q-49 11 -84 -24l-237 -236q-26 -27 -26 -63.5t26 -63.5l95 -94q26 -26 63 -26t63 26l237 236q35 35 23 84v72zM596.5 447q-22.5 0 -38 16t-15.5 38t15.5 38t38 16t38.5 -16t16 -38t-16 -38t-38.5 -16zM512 889q-103 0 -197 -40
t-161.5 -108t-108 -161.5t-40.5 -197t40.5 -197t108 -161.5t161.5 -108t197 -40t197 40t161.5 108t108 161.5t40.5 197t-40.5 197t-108 161.5t-161.5 108t-197 40zM512 -85q-94 0 -180.5 37.5t-149.5 100t-100.5 149.5t-37.5 181t37.5 180.5t100.5 149t149.5 100t180.5 37.5
t180.5 -37.5t149.5 -100t100.5 -149t37.5 -180.5t-37.5 -181t-100.5 -149.5t-149.5 -100t-180.5 -37.5z" />
    <glyph glyph-name="dangan" unicode="&#xe637;" 
d="M441 360h139v-31h17v47h-173v-47h17v31zM441 500h139v-31h17v47h-173v-47h17v31zM441 220h139v-31h17v47h-173v-47h17v31zM510.5 832q-91.5 0 -174.5 -35.5t-143 -95.5t-95.5 -143t-35.5 -174.5t35.5 -174.5t95.5 -143t143 -95.5t174.5 -35.5t174.5 35.5t143 95.5
t95.5 143t35.5 174.5t-35.5 174.5t-95.5 143t-143 95.5t-174.5 35.5zM378 609h265l40 -31h-345l40 31v0zM701 158h-381v124h381v-124zM701 298h-381v124h381v-124zM701 438h-381v124h381v-124z" />
    <glyph glyph-name="shezhi" unicode="&#xe638;" 
d="M510 473q-37 0 -63 -26t-26 -62.5t26 -62.5t63 -26t63 26t26 62.5t-26 62.5t-63 26v0zM796 342q0 -20 -15 -35t-37 -15h-9l7 -7q14 -14 14 -36q0 -20 -14 -35l-61 -61q-15 -14 -36 -14t-36 14l-6 7v-9q0 -22 -15 -37.5t-36 -15.5h-85q-21 0 -36 15.5t-15 37.5v9l-6 -7
q-15 -14 -36 -14t-36 14l-60 61q-15 14 -15 35t15 36l6 7h-9q-21 0 -36.5 15t-15.5 35v86q0 20 15.5 35t36.5 15h9l-6 7q-15 14 -15 35t15 36l60 61q15 14 36 14t36 -14l6 -7v9q0 22 15 37.5t36 15.5h85q21 0 36 -15.5t15 -37.5v-9l6 6q15 15 36 15t36 -15l61 -60
q14 -15 14 -36t-14 -36l-7 -6h9q22 0 37 -15t15 -36v-85v0zM509.5 834q-91.5 0 -174.5 -35.5t-143 -95.5t-95.5 -143t-35.5 -174.5t35.5 -174.5t95.5 -143.5t143 -96t174.5 -35.5t174.5 35.5t143.5 96t96 143.5t35.5 174.5t-35.5 174.5t-96 143t-143.5 95.5t-174.5 35.5z
M510 258q-53 0 -90 37.5t-37 89.5t37 89.5t89.5 37.5t89.5 -37.5t37 -89.5t-37 -89.5t-89 -37.5v0zM734 449h-22q-13 0 -18 12.5t4 21.5l16 15q6 7 6 16.5t-6 16.5l-58 57q-7 7 -16.5 7t-16.5 -7l-15 -15q-9 -10 -22 -4q-12 5 -12 18v22q0 10 -7 17.5t-16 7.5h-82
q-9 0 -16 -7.5t-7 -17.5v-22q0 -13 -12.5 -18t-21.5 4l-16 16q-6 6 -16 6t-16 -6l-58 -58q-7 -7 -7 -16.5t7 -15.5l15 -16q10 -9 4.5 -21.5t-18.5 -12.5h-22q-9 0 -16.5 -7t-7.5 -16v-82q0 -9 7.5 -16t16.5 -7h22q13 0 19 -12q5 -13 -5 -22l-15 -15q-7 -7 -7 -17q0 -9 7 -16
l58 -58q6 -6 16 -6t16 6l16 16q5 6 14 6q4 0 8 -2q12 -5 12 -19v-21q0 -10 7 -17t16 -7h82q9 0 16 7t7 17v21q0 14 12.5 19t21.5 -4l15 -16q7 -6 16.5 -6t16.5 6l58 58q6 7 6 16.5t-6 16.5l-16 15q-9 9 -4 21.5t18 12.5h22q10 0 17 7t7 16v82q0 9 -7 16t-17 7v0z" />
    <glyph glyph-name="gonggao" unicode="&#xe639;" 
d="M512 830q91 0 173.5 -35.5t142 -95t95 -142t35.5 -173.5t-35.5 -173.5t-95 -142t-142 -95t-173.5 -35.5t-173.5 35.5t-142 95t-95 142t-35.5 173.5t35.5 173.5t95 142t142 95t173.5 35.5v0v0zM545 194v384q0 2 -1 4t-5 6.5t-8 7t-12 0.5t-16 -9l-103 -93h-113q-6 0 -9 -1
t-7 -7.5t-4 -19.5v-165q0 -10 6 -16.5t15 -6.5h106l110 -95q12 -13 26.5 -12t14.5 23v0v0v0zM757 372q2 50 -19.5 96t-61.5 81q-13 8 -27 -4t-6 -23q73 -62 69 -149q-4 -78 -71 -133q-10 -12 6 -23.5t25 -4.5q80 66 85 160v0v0v0zM623 377q-3 -49 -44 -84q-9 -12 5 -22.5
t26 -2.5q51 45 55 107q3 71 -55 122q-8 6 -18.5 2t-14 -11.5t1.5 -14.5q46 -40 44 -96v0v0v0z" />
    <glyph glyph-name="guanbi" unicode="&#xe63a;" 
d="M957 729l-99 98l-345 -345l-347 347l-99 -98l348 -348l-347 -346l99 -98l346 346l345 -345l99 98l-346 345z" />
    <glyph glyph-name="shaixuan" unicode="&#xe63b;" 
d="M596 -65q-11 0 -19 7l-177 143v13v12v274q0 1 -7 11t-7 11l-283 279q-2 2 -3 4q-25 25 -25 59q0 36 20.5 60.5t54.5 24.5h724q34 0 54.5 -24.5t20.5 -60.5q0 -34 -24 -58q-1 -2 -3 -3l-293 -290q-1 -1 -3 -6.5t-2 -6.5v-424q0 -15 -14 -22q-7 -3 -14 -3v0zM450 121
l124 -111v374v9v10.5t0.5 10t1.5 10.5t3 8.5t5 7.5l293 289q1 2 3 3q6 7 6 16q0 35 -12 35h-724q-12 0 -12 -35q0 -9 7 -16q1 -2 4 -5l281 -278q20 -19 20 -46v-282v0z" />
    <glyph glyph-name="guanbi1" unicode="&#xe63c;" 
d="M512 828q-91 0 -173 -35t-141.5 -94.5t-94.5 -141.5t-35 -173t35 -173t94.5 -141.5t141.5 -94.5t173 -35t173 35t141.5 94.5t94.5 141.5t35 173t-35 173t-94.5 141.5t-141.5 94.5t-173 35zM734 224l-62 -62l-160 160l-160 -160l-62 62l160 160l-160 160l62 62l160 -160
l160 160l62 -62l-160 -160z" />
    <glyph glyph-name="tongxunlu" unicode="&#xe63d;" 
d="M555 327q-14 4 -20.5 13t-5.5 15.5t2 9.5q9 8 13 23q8 4 11 13.5t-4 15.5q16 61 -22 63q0 8 -27.5 12t-50 -13.5t-10.5 -61.5q-8 -2 -6.5 -13t10.5 -14q1 0 1.5 -4t4 -10.5t9.5 -12.5q6 -4 0.5 -18.5t-19.5 -17.5q-21 -3 -38.5 -15.5t-15.5 -35.5h214q1 2 1.5 4.5
t-0.5 9.5t-5 13.5t-15 13t-27 10.5v0zM512 831q-91 0 -173.5 -35.5t-142.5 -95.5t-95.5 -142.5t-35.5 -173.5t35.5 -173.5t95.5 -142.5t142.5 -95.5t173.5 -35.5t173.5 35.5t142.5 95.5t95.5 142.5t35.5 173.5t-35.5 173.5t-95.5 142.5t-142.5 95.5t-173.5 35.5v0zM311 509
h14q7 0 7 -7t-7 -7h-14q-6 0 -6 7t6 7zM311 439h14q7 0 7 -7t-7 -7h-14q-6 0 -6 7t6 7zM311 370h14q7 0 7 -7t-7 -7h-14q-6 0 -6 7t6 7zM311 301h14q7 0 7 -7t-7 -7h-14q-6 0 -6 7t6 7zM305 225q0 7 6 7h14q7 0 7 -7t-7 -7h-14q-6 0 -6 7zM346 550h319v-346q0 -28 -28 -28
h-285q-14 0 -24 7.5t-10 20.5h14q10 0 15 8.5t5 19.5q0 9 -4 11.5t-16 2.5h-14l2 26l12 1h7h6t4 0.5t2.5 2.5t0.5 6q0 12 -5.5 22.5t-14.5 10.5h-14v27h14q20 0 20 18q0 10 -5 17t-15 7h-14v28h14q10 0 15 7.5t5 18.5q0 9 -4.5 12t-15.5 3h-14v28h14q20 0 20 20.5t-20 20.5
h-14v42q0 28 28 28h305q5 0 7 -1t3.5 -5.5t3.5 -7.5h-319q-14 0 -14 -14t14 -14v0zM720 329h-42v55h42v-55zM720 398h-42v55h42v-55zM720 467h-42v55h42v-55z" />
    <glyph glyph-name="wode" unicode="&#xe63e;" 
d="M958 383q0 -90 -35.5 -172.5t-95.5 -142.5t-142 -95.5t-172 -35.5q-90 -1 -173 35t-143 96t-95.5 143.5t-35.5 173.5t35.5 172.5t95.5 142.5t142 95.5t172 35.5q90 1 173 -35t143 -96t95.5 -143t35.5 -174v0zM513 9q100 0 185.5 48t137 134.5t52.5 190.5q0 106 -52 193.5
t-138 135.5t-185 48q-74 0 -142.5 -28t-120 -76.5t-83 -119.5t-31.5 -151q0 -105 52 -192t138.5 -135.5t186.5 -47.5zM604 361q116 -54 138 -206q-26 4 -44 8q-11 77 -59 125t-129 49q-142 1 -183 -175h-38q1 68 35 117t98 85l-3 3q-70 60 -69 128q1 67 50.5 113t115.5 46
q67 0 114 -46.5t47 -112.5q-2 -33 -13.5 -59t-22.5 -38t-23.5 -23.5t-13.5 -13.5zM398 496q-1 -46 33.5 -80t79.5 -34.5t80 33.5t35 79q1 44 -33.5 79t-79.5 35q-44 1 -79.5 -33.5t-35.5 -78.5v0v0z" />
    <glyph glyph-name="tuichixuanzhong" unicode="&#xe63f;" 
d="M512 831q-91 0 -174 -35.5t-142.5 -95t-95 -142.5t-35.5 -174t35.5 -174t95 -142.5t142.5 -95t174 -35.5t174 35.5t142.5 95t95 142.5t35.5 174t-35.5 174t-95 142.5t-142.5 95t-174 35.5zM321 279h-15v177h15v-177zM398 279h-50v177h50v-177zM526 146v133h-102v177h102
v153l241 -233l-241 -230v0z" />
    <glyph glyph-name="tubiao" unicode="&#xe640;" 
d="M557 495q-11 9 -28 9q-21 0 -41 -16q-20 -15 -36 -36q-15 -22 -22 -38q-17 -40 -19 -78q3 -50 37 -63q5 -2 20 -5q52 1 93 93q21 54 21 81q1 35 -25 53zM512 831q-91 0 -173.5 -35.5t-142.5 -95.5t-95.5 -142.5t-35.5 -173.5t35.5 -173.5t95.5 -142.5t142.5 -95.5
t173.5 -35.5t173.5 35.5t142.5 95.5t95.5 142.5t35.5 173.5t-35.5 173.5t-95.5 142.5t-142.5 95.5t-173.5 35.5zM759.5 391.5q-3.5 -17.5 -9 -31.5t-13.5 -30q-7 -13 -15 -27q-10 -20 -30.5 -39t-45 -31.5t-47.5 -12.5q-40 4 -59 38q-35 -32 -81 -35q-26 3 -46 11
q-53 22 -55 95q1 54 25 102q13 30 36 56t52 42t57 16q16 0 31 -6q16 -5 29 -16q14 -11 23 -24v0l10 29h50l-79 -231l-3 -16q1 -1 1 -5q2 -16 19 -18q18 1 41 17q23 17 34 38q38 70 38 120q0 37 -17 70q-16 33 -44 58q-29 25 -64 39t-72 15q-47 0 -88 -18q-40 -19 -70 -51.5
t-47 -74.5t-18 -90h1v0q1 -61 29.5 -113.5t78 -83.5t108.5 -31q62 1 108.5 24t79.5 72h44q-25 -45 -59.5 -74.5t-77.5 -43.5t-95 -14q-71 1 -130.5 38t-93.5 99q-34 61 -34 132q0 52 20 100.5t56 85.5t84 58t103 21q45 -2 89 -19q43 -16 77.5 -46t53.5 -70t19 -88
q0 -19 -3.5 -36.5z" />
    <glyph glyph-name="iconlianjie" unicode="&#xe641;" 
d="M425 198v0q-6 0 -10 4t-4 9v672q0 5 4 9t10 4v0q5 0 9 -4t4 -9v-670q1 -5 -3 -10t-10 -5zM850 213v0q0 -5 -4 -9t-10 -4h-411q-6 0 -10 4t-4 9v0q0 6 4 10t10 4h409q16 0 16 -14zM850 213zM789 213q0 25 17.5 43t43 18t43 -18t17.5 -43t-17.5 -42.5t-43 -17.5t-43 17.5
t-17.5 42.5z" />
    <glyph glyph-name="renming" unicode="&#xe644;" 
d="M510.5 832q-90.5 0 -173 -35.5t-142.5 -95t-95 -142.5t-35 -173.5t35 -173t95 -142.5t142.5 -95t173 -35t173.5 35t142.5 95t95 142.5t35.5 173t-35.5 173.5t-95 142.5t-142.5 95t-173.5 35.5zM510.5 -26q-110.5 0 -205.5 55.5t-150.5 150.5t-55.5 205.5t55.5 205.5
t150.5 151t205.5 56t205.5 -56t151 -151t56 -205.5t-56 -205.5t-151 -150.5t-205.5 -55.5zM560 359h-96q-67 0 -114.5 -48t-47.5 -115v-9q0 -17 11 -27t38 -14t48 -5t65 -1h96h43t37 1.5t34.5 4.5t24.5 8t18 13t5 20v9q0 67 -47.5 115t-114.5 48zM507 371q53 0 91 37.5
t38 91t-38 91t-91 37.5t-90.5 -37.5t-37.5 -91t37.5 -91t90.5 -37.5z" />
    <glyph glyph-name="xiangximiaoshu" unicode="&#xe645;" 
d="M510.5 893q-103.5 0 -197.5 -40t-162 -108t-108 -162t-40 -197t40 -197t108 -162t162 -108.5t197.5 -40.5t197.5 40.5t162 108.5t108 162t40 197t-40 197t-108 162t-162 108t-197.5 40zM510.5 -83q-94.5 0 -181 37.5t-149.5 100.5t-100.5 150t-37.5 181t37.5 181
t100.5 150t149.5 100.5t181 37.5t181 -37.5t149.5 -100.5t100.5 -150t37.5 -181t-37.5 -181t-100.5 -150t-149.5 -100.5t-181 -37.5zM678 605h-332q-22 0 -38.5 -17.5t-16.5 -40.5v-329q0 -23 16 -39t39 -16h329q23 0 40.5 16.5t17.5 38.5v332q0 23 -16 39t-39 16zM623 301
h-222q-13 0 -13 14t13 14h222q13 0 13 -14q0 -5 -4 -9.5t-9 -4.5zM623 384h-222q-13 0 -13 14t13 14h222q13 0 13 -14q0 -5 -4 -9.5t-9 -4.5zM623 467h-222q-13 0 -13 14t13 14h222q13 0 13 -14q0 -5 -4 -9.5t-9 -4.5z" />
    <glyph glyph-name="wode1" unicode="&#xe647;" 
d="M503 781q76 0 130 -54.5t54 -131t-54 -130.5t-130 -54t-130 54t-54 130.5t54 131t130 54.5zM600 286q102 0 174 -72t72 -174v-18q0 -6 -4 -9q-12 -10 -43 -16q-50 -10 -199 -10h-176q-153 0 -201 10q-30 6 -41 15q-4 4 -4 10v18q0 102 72 174t174 72h176zM503 832
q-97 0 -166 -69.5t-69 -167t69 -166.5t166.5 -69t166.5 69t69 166.5t-69 167t-167 69.5v0zM600 337h-176q-123 0 -210.5 -87t-87.5 -210v-18q0 -21 9.5 -36t32.5 -24t43.5 -14.5t62.5 -8t68.5 -3t81.5 -0.5h176q40 0 59.5 0.5t53.5 1.5t52 3t43 6t38 10.5t26.5 15t19.5 21
t6 28.5v18q0 123 -87.5 210t-210.5 87v0z" />
    <glyph glyph-name="liebiaoxuanzhong" unicode="&#xe648;" 
d="M188 796q28 0 48 -19.5t20 -47.5v-52q0 -29 -20 -49t-48 -20h-55q-27 0 -47 20t-20 49v52q0 28 20 47.5t47 19.5h55v0zM889 796q27 0 47 -19.5t20 -47.5v-52q0 -29 -20 -49t-47 -20h-437q-28 0 -48 20t-20 49v52q0 28 20 47.5t48 19.5h437v0zM188 478q28 0 48 -19.5
t20 -48.5v-52q0 -28 -20 -47.5t-48 -19.5h-55q-27 0 -47 19.5t-20 47.5v52q0 29 20 48.5t47 19.5h55v0zM889 478q27 0 47 -19.5t20 -48.5v-52q0 -28 -20 -47.5t-47 -19.5h-437q-28 0 -48 19.5t-20 47.5v52q0 29 20 48.5t48 19.5h437v0zM188 160q28 0 48 -20t20 -48v-52
q0 -28 -20 -48t-48 -20h-55q-27 0 -47 20t-20 48v52q0 28 20 48t47 20h55v0zM889 160q27 0 47 -20t20 -48v-52q0 -29 -20 -48.5t-47 -19.5h-437q-28 0 -48 20t-20 48v52q0 28 20 48t48 20h437v0z" />
    <glyph glyph-name="dongtaixuanzhong" unicode="&#xe649;" 
d="M512 813q-121 0 -224 -45.5t-162.5 -123.5t-59.5 -170.5t59.5 -171t162.5 -124t224 -45.5q38 0 13 -159l-3 -19q22 0 59.5 34.5t70.5 76t65 80.5t44 45q91 47 144 121.5t53 160.5q0 93 -59.5 171t-162.5 123.5t-224 45.5zM313 414q-25 0 -42.5 17.5t-17.5 42.5t17.5 43
t42.5 18t43 -18t18 -43t-18 -42.5t-43 -17.5zM513 414q-25 0 -42.5 17.5t-17.5 42.5t17.5 43t42.5 18t42.5 -18t17.5 -43t-17.5 -42.5t-42.5 -17.5zM712 414q-25 0 -42.5 17.5t-17.5 42.5t17.5 43t42.5 18t43 -18t17.5 -43t-18 -42.5t-42.5 -17.5z" />
    <glyph glyph-name="liebiao" unicode="&#xe64a;" 
d="M890 745q6 0 10 -5q5 -4 5 -11v-52q0 -8 -5 -13t-11 -5h-437q-7 0 -12 5t-5 13v52q0 7 4 11q5 5 13 5h437h1zM189 745q7 0 11.5 -4.5t4.5 -11.5v-52q0 -8 -5 -13t-12 -5h-55q-6 0 -11 5v0v0q-5 5 -5 13v52q0 7 5 11q5 5 11 5h55h1zM889 427q6 0 11 -5t5 -12v-52
q0 -7 -5 -11.5t-11 -4.5h-437q-7 0 -12 5t-5 11v52q0 7 5 12t12 5h437zM188 427q7 0 12 -5t5 -12v-52q0 -6 -5 -11t-12 -5h-55q-6 0 -11 5t-5 11v52q0 7 5 12t11 5h55zM889 109q6 0 11 -5t5 -12v-52q0 -7 -5 -12t-11 -5h-437q-7 0 -12 5t-5 12v52q0 7 5 12t12 5h437z
M188 109q7 0 12 -5t5 -12v-52q0 -7 -5 -12t-12 -5h-55q-6 0 -11 5t-5 12v52q0 7 5 12t11 5h55zM889 796v0h-437q-28 0 -48 -19.5t-20 -47.5v-52q0 -29 20 -49t48 -20h437q27 0 47 20t20 49v52q0 28 -20 47.5t-47 19.5v0zM188 796v0h-55q-27 0 -47 -19.5t-20 -47.5v-52
q0 -29 20 -49t47 -20h55q28 0 48 20t20 49v52q0 28 -20 47.5t-48 19.5v0zM889 478h-437q-28 0 -48 -19.5t-20 -48.5v-52q0 -28 20 -47.5t48 -19.5h437q27 0 47 19.5t20 47.5v52q0 29 -20 48.5t-47 19.5v0zM188 478h-55q-27 0 -47 -19.5t-20 -48.5v-52q0 -28 20 -47.5
t47 -19.5h55q28 0 48 19.5t20 47.5v52q0 29 -20 48.5t-48 19.5v0zM889 160h-437q-28 0 -48 -20t-20 -48v-52q0 -28 20 -48t48 -20h437q27 0 47 19.5t20 48.5v52q0 28 -20 48t-47 20v0zM188 160h-55q-27 0 -47 -20t-20 -48v-52q0 -28 20 -48t47 -20h55q28 0 48 20t20 48v52
q0 28 -20 48t-48 20v0z" />
    <glyph glyph-name="fenlei" unicode="&#xe64b;" 
d="M857 781q19 0 33 -14.5t14 -34.5v-220q0 -20 -14 -34v0v0q-14 -14 -33 -14h-218q-20 0 -34 14.5t-14 34.5v219q0 20 14 34.5t34 14.5h218zM334 781v0h51q20 0 34 -15q14 -14 14 -33v0v0v-218q0 -20 -14 -34t-34 -14h-220q-20 0 -34 14t-14 34v218q0 20 14 34t34 14h169z
M382 309q20 0 34 -14t14 -34v-220q0 -20 -14 -34t-34 -14h-218q-19 0 -33 14t-14 34v220q0 20 14 34t33 14h218zM856 306q20 0 34 -14t14 -34v0v0v-218q0 -19 -14 -33t-34 -14h-220q-20 0 -34 14t-14 33v218q0 20 14 34t34 14h220zM857 832h-218q-41 0 -70 -29.5t-29 -70.5
v-219q0 -42 29 -71t70 -29h218q41 0 70 29t29 70v220v0q0 41 -29 70.5t-70 29.5v0zM385 832h-220q-41 0 -70.5 -29t-29.5 -70v-218q0 -41 29.5 -70t70.5 -29h220q41 0 70 29t29 70v218q0 41 -29 70t-70 29v0v0zM382 360h-218q-41 0 -70 -29t-29 -70v-220q0 -41 29 -70
t70 -29h218q41 0 70 29t29 70v220q0 41 -29 70t-70 29v0zM856 357h-220q-41 0 -70 -29t-29 -70v-218q0 -41 29 -69.5t70 -28.5h220q41 0 70.5 29t29.5 69v218q0 41 -29.5 70t-70.5 29v0z" />
    <glyph glyph-name="fenleixuanzhong" unicode="&#xe64c;" 
d="M956 732v-220q0 -41 -29 -70t-70 -29h-218q-41 0 -70 29t-29 71v219q0 41 29 70.5t70 29.5h218q41 0 70 -29.5t29 -70.5v0zM382 360h-218q-41 0 -70 -29t-29 -70v-220q0 -41 29 -70t70 -29h218q41 0 70 29t29 70v220q0 41 -29 70t-70 29v0zM856 357h-220q-41 0 -70 -29
t-29 -70v-218q0 -41 29 -69.5t70 -28.5h220q41 0 70.5 29t29.5 69v218q0 41 -29.5 70t-70.5 29v0zM385 832h-220q-41 0 -70.5 -29t-29.5 -70v-218q0 -41 29.5 -70t70.5 -29h220q41 0 70 29t29 70v218q0 41 -29 70t-70 29v0z" />
    <glyph glyph-name="wodexuanzhong" unicode="&#xe64d;" 
d="M600 337h-176q-123 0 -210.5 -87t-87.5 -210v-18q0 -21 9.5 -36t32.5 -24t43.5 -14.5t62.5 -8t68.5 -3t81.5 -0.5h176q40 0 59.5 0.5t53.5 1.5t52 3t43 6t38 10.5t26.5 15t19.5 21t6 28.5v18q0 123 -87.5 210t-210.5 87zM503.5 360q97.5 0 166.5 69t69 166.5t-69 167
t-166.5 69.5t-166.5 -69.5t-69 -167t69 -166.5t166.5 -69z" />
    <glyph glyph-name="dongtai" unicode="&#xe64e;" 
d="M512 762q83 0 158 -24q72 -23 126 -65q53 -41 82 -92.5t29 -107.5q0 -35 -12 -68q-11 -34 -33 -64q-45 -63 -124 -104v0v0q-16 -8 -34 -27.5t-56 -67.5q-41 -51 -63 -75q1 65 -22 93q-20 25 -51 25q-83 0 -158 24q-71 23 -126 65q-53 40 -82 91.5t-29 107.5t29 107.5
t82 92.5q55 42 126 65q75 24 158 24zM512 813q-121 0 -224 -45.5t-162.5 -123.5t-59.5 -170.5t59.5 -171t162.5 -124t224 -45.5q38 0 13 -159l-3 -19v0q22 0 59.5 34.5t70.5 76.5t65 80.5t44 44.5q91 47 144 121.5t53 160.5q0 93 -59.5 171t-162.5 123.5t-224 45.5v0z
M313 476zM252 476q0 25 18 43t43 18t42.5 -18t17.5 -43t-17.5 -42.5t-42.5 -17.5t-43 17.5t-18 42.5zM511 476zM450 476q0 25 18 43t43 18t42.5 -18t17.5 -43t-17.5 -42.5t-42.5 -17.5t-43 17.5t-18 42.5zM709 476zM649 476q0 25 17.5 43t42.5 18t43 -18t18 -43t-18 -42.5
t-43 -17.5t-42.5 17.5t-17.5 42.5z" />
    <glyph glyph-name="gantanhao1" unicode="&#xe62c;" 
d="M601 673q0 37 -26 63t-63 26t-63 -26t-26 -63v-333q0 -37 26 -63t63 -26t63 26t26 63v333v0zM512 184q-37 0 -63 -26t-26 -63t26 -63t63 -26t63 26t26 63t-26 63t-63 26v0zM512 184z" />
    <glyph glyph-name="yanchi" unicode="&#xe630;" 
d="M186 502h51v-236h-51v236zM283 502h103v-236h-103v236zM838 384l-289 289v-171h-120v-236h120v-171z" />
    <glyph glyph-name="iconfontbiaoqianmini" unicode="&#xe634;" 
d="M659 645q0 25 -17.5 42.5t-42.5 17.5h-47q-32 7 -55 -16l-157 -157q-18 -17 -18 -41.5t18 -42.5l63 -62q17 -18 41.5 -18t41.5 18l157 157q23 23 16 55v47v0v0zM568 580q-15 0 -25.5 10.5t-10.5 25.5t10.5 25.5t25.5 10.5t25.5 -10.5t10.5 -25.5t-10.5 -25.5t-25.5 -10.5
v0zM512 873q-91 0 -168.5 -45t-122.5 -122t-45 -168.5t45 -169t122.5 -122t168.5 -44.5t168.5 44.5t122.5 122t45 169t-45 168.5t-122.5 122t-168.5 45v0zM512 227q-83 0 -154.5 42t-113.5 113.5t-42 155t42 155t113.5 113t154.5 41.5t154.5 -41.5t113.5 -113t42 -155
t-42 -155t-113.5 -113.5t-154.5 -42v0zM512 227zM356 66q-1 -10 -1 -28v-38q0 -44 -13 -66q-10 -16 -31 -31q-5 6 -11 10q23 15 32 30q10 19 10 57v37q0 19 -1 29h15zM312 -44v20v98q0 12 -1 20q10 -1 19 -1h35q14 0 20 1q-1 -7 -1 -20v-97q0 -13 1 -21h-15q1 8 1 20v105
h-46v-105q0 -11 1 -20h-14v0zM379 -90q-10 18 -23 35l10 6q13 -15 24 -34zM477 2q9 0 15 1q-1 -11 -1 -18v-58q0 -11 1 -21h-15v13h-65v-13h-14q1 11 1 21v59q0 8 -1 17q6 -1 16 -1h19v77q0 14 -1 21h17q-2 -9 -2 -21v-21h34q12 0 19 1v-16q-7 1 -19 1h-34v-42h30zM412 -68
h65v57h-65v-57zM568 -71q0 -17 2 -26h-16q1 9 1 26v60q0 14 1 36q-9 -41 -29 -70q-3 7 -8 13q15 18 25 48q6 16 9 32h-11q-10 0 -18 -2v15q7 -2 18 -2h13v20q0 13 -1 23h16q-2 -9 -2 -23v-20h12q8 0 15 1v-14q-8 2 -15 2h-12v-12q17 -19 29 -36l-11 -9q-7 15 -18 30v-92z
M630 1q-11 -41 -34 -73q-3 5 -10 11q22 24 32 67zM616 25q-11 0 -20 -1v16q8 -2 21 -2h83q11 0 21 2v-16q-9 1 -21 1h-35v-97q0 -10 -1 -13q-4 -7 -20 -7h-19q-1 8 -4 15q14 -2 23 -2q7 0 7 5v99h-35zM607 91q7 -1 17 -1h66q11 0 17 1v-15q-7 1 -17 1h-66q-11 0 -17 -1v15z
M711 -70q-14 45 -29 70l13 5q15 -25 29 -68z" />
    <glyph glyph-name="xiugai" unicode="&#xe672;" 
d="M328 339q-2 -2 -2 -3l-50 -184q-5 -18 8 -31q9 -9 22 -9q4 0 8 1l183 50v0h1q3 0 5 2l489 489q23 23 23 56q0 39 -29 67l-46 47q-28 28 -67 28q-33 0 -56 -22l-489 -490v-0.5v-0.5zM945 702l-49 -48l-79 80l48 48q6 5 15 4.5t16 -7.5l46 -46q8 -7 8 -17q0 -8 -5 -14z
M415 331l352 353l79 -80l-352 -352zM350 188l26 94l68 -68zM975.5 509q-13.5 0 -23.5 -10t-10 -24v-456q0 -18 -13 -30.5t-31 -12.5h-771q-18 0 -30.5 12.5t-12.5 30.5v744q0 18 12.5 30.5t30.5 12.5h497q14 0 24 10t10 24t-10 24t-24 10h-502q-44 0 -75 -31t-31 -75v-754
q0 -44 31 -75t75 -31h781q44 0 75 31t31 75v461q0 14 -10 24t-23.5 10z" />
    <glyph glyph-name="biaoqian-copy" unicode="&#xe64f;" 
d="M706 526q0 32 -23 55t-55 23h-63q-43 11 -73 -20l-208 -208q-23 -23 -23 -55.5t23 -55.5l83 -83q23 -23 55.5 -23t55.5 23l208 208q31 30 20 73v63zM586.5 439q-19.5 0 -33.5 14t-14 33.5t14 33.5t33.5 14t33.5 -14t14 -33.5t-14 -33.5t-33.5 -14zM512 828
q-91 0 -173 -35.5t-142 -95t-95 -142t-35 -173t35 -173t95 -142t142 -95t173 -35.5t173 35.5t142 95t95 142t35 173t-35 173t-95 142t-142 95t-173 35.5zM512 -28q-110 0 -205 55.5t-150.5 150t-55.5 205t55.5 205.5t150.5 150.5t205 55.5t205 -55.5t150.5 -150.5
t55.5 -205.5t-55.5 -205t-150.5 -150t-205 -55.5z" />
    <glyph glyph-name="baocun" unicode="&#xe65f;" 
d="M74 384q0 89 34.5 170t93.5 140t140 93.5t170 34.5t170 -34.5t140 -93.5t93.5 -140t34.5 -170t-34.5 -170t-93.5 -140t-140 -93.5t-170 -34.5t-170 34.5t-140 93.5t-93.5 140t-34.5 170zM19 384q0 -100 39 -191.5t105 -157.5t157.5 -105t191.5 -39t191.5 39t157.5 105
t105 157.5t39 191.5t-39 191.5t-105 157.5t-157.5 105t-191.5 39t-191.5 -39t-157.5 -105t-105 -157.5t-39 -191.5zM591 265h-157q-17 0 -28.5 11.5t-11.5 28t11.5 28t28.5 11.5h157q17 0 28.5 -11.5t11.5 -28t-11.5 -28t-28.5 -11.5zM709 541q0 17 -11.5 28.5t-27.5 11.5
v-119q0 -16 -11.5 -27.5t-27.5 -11.5h-237q-16 0 -27.5 11.5t-11.5 27.5v119q-17 0 -28.5 -11.5t-11.5 -28.5v-316q0 -16 11.5 -27.5t28.5 -11.5h315q16 0 27.5 11.5t11.5 27.5v316zM591 581h-157v-79h157v79zM709 107h-394q-33 0 -56 23.5t-23 55.5v396q0 32 23 55.5
t56 23.5h394q33 0 56 -23.5t23 -55.5v-396q0 -32 -23 -55.5t-56 -23.5z" />
    <glyph glyph-name="shouye" unicode="&#xe642;" 
d="M512 764l301 -322q-11 -14 -11 -32v-127v-251q0 -17 -11 -29q-10 -11 -23 -11h-77h-43v177q0 21 -15 36t-36 15h-170q-21 0 -36 -15t-15 -36v-177h-120q-13 0 -23 11q-11 12 -11 29v378q0 18 -11 32l4 4v1zM512 830q-9 0 -15 -7l-320 -342v0l-106 -114q-7 -6 -7 -15.5
t6.5 -16.5t15.5 -7t15 7l70 75v-378q0 -38 25 -64.5t60 -26.5h149q9 0 15.5 6.5t6.5 16.5v205h170v-198q0 -13 5.5 -20.5t10.5 -8.5l6 -1h72h77q35 0 60 26.5t25 64.5v251v127l70 -75q6 -7 15 -7t15.5 7t6.5 16.5t-7 15.5l-426 456q-6 7 -15 7v0zM597 -24v-4v4v0zM597 -28v0
v0v0zM597 -28v-1v1v0zM597 -29v0v0v0zM597 -29v0v0v0zM597 -29v0v0v0zM597 -29v0v0v0zM597 -29v0v0v0zM597 -29v0v0v0zM597 -29v0v0v0zM597 -29v0v0v0zM597 -29v0v0v0zM597 -29v0v0v0zM597 -29v0v0v0zM597 -29v0v0v0zM597 -29v0v0v0zM597 -29v0v0v0zM597 -29v0v0v0zM597 -29
v0v0v0zM597 -29v0v0v0zM597 -29v0v0v0zM597 -29v0v0v0zM597 -29v0v0v0zM597 -29v0v0v0zM597 -29v0v0v0zM597 -29v0v0v0zM597 -29v0v0v0zM597 -29v0v0v0zM597 -29v0v0v0zM597 -29v0v0v0zM597 -29v0v0v0zM597 -29v0v0v0z" />
    <glyph glyph-name="shouyexuanzhong" unicode="&#xe646;" 
d="M953 367l-426 456q-6 7 -15 7t-15 -7l-320 -342v0l-106 -114q-7 -6 -7 -15.5t6.5 -16.5t15.5 -7t15 7l70 75v-378q0 -38 25 -64.5t60 -26.5h149q9 0 15.5 6.5t6.5 16.5v205h170v-173v-55h22h72h77q35 0 60 26.5t25 64.5v251v127l70 -75q6 -7 15 -7t15.5 7t6.5 16.5
t-7 15.5v0zM953 367z" />
    <glyph glyph-name="xingrenwu" unicode="&#xe65c;" 
d="M824 474l-210 33l-95 201l-94 -201l-212 -33l152 -155l-36 -222l190 104l189 -104l-36 222zM518.5 -108q-100.5 0 -192 39.5t-158 106t-105.5 158t-39 192t39 192t105.5 158t158 105.5t192 39t192.5 -39t158 -105.5t105.5 -158t39.5 -192t-39.5 -192t-105.5 -158
t-158 -106t-192.5 -39.5zM518.5 867q-97.5 0 -186 -38t-153 -102.5t-102.5 -153t-38 -186t38 -186.5t102.5 -153t153 -102t186 -38t186.5 38t153 102t102 153t38 186.5t-38 186t-102 153t-153 102.5t-186.5 38zM109 119zM67 119.5q0 17.5 12.5 30t30 12.5t30 -12.5t12.5 -30
t-12.5 -30t-30 -12.5t-30 12.5t-12.5 30z" />
    <glyph glyph-name="tongji" unicode="&#xe651;" 
d="M603 669q1 0 1 -1v-512q0 -1 -1 -1h-84q-1 0 -1 1v512q0 1 1 1h84zM603 709h-84q-17 0 -29 -12t-12 -29v-512q0 -18 12 -30t29 -12h84q17 0 29.5 12t12.5 30v512q0 17 -12.5 29t-29.5 12v0zM830 501q1 0 1 -1v-344q0 -1 -1 -1h-84q-1 0 -1 1v344q0 1 1 1h84zM830 542h-84
q-17 0 -29.5 -12t-12.5 -30v-344q0 -18 12.5 -30t29.5 -12h84q17 0 29.5 12t12.5 30v344q0 18 -12.5 30t-29.5 12v0zM112 792q4 0 8 -3v-670v-88v-41h40h755q3 -3 3 -6t-3 -6h-807q-1 0 -1 1v811q3 2 5 2zM112 833q-17 0 -31 -12t-14 -29v-813q0 -17 12 -29.5t29 -12.5h809
q17 0 29.5 14.5t12.5 32.5t-12.5 32.5t-29.5 14.5h-757v88v673q0 16 -15 28.5t-33 12.5v0zM376 292q1 0 1 -1v-135q0 -1 -1 -1h-84v1v135v1h84zM376 333h-84q-17 0 -29 -12.5t-12 -29.5v-135q0 -18 12 -30t29 -12h84q18 0 30 12t12 30v135q0 17 -12 29.5t-30 12.5v0z" />
    <glyph glyph-name="tongjixuanzhong" unicode="&#xe652;" 
d="M519 114h84q17 0 29.5 12t12.5 30v512q0 17 -12.5 29t-29.5 12h-84q-17 0 -29 -12t-12 -29v-512q0 -18 12 -30t29 -12zM746 114h84q17 0 29.5 12t12.5 30v344q0 18 -12.5 30t-29.5 12h-84q-17 0 -29.5 -12t-12.5 -30v-344q0 -18 12.5 -30t29.5 -12zM917 31h-757v88v673
q0 16 -15 28.5t-32.5 12.5t-31.5 -12t-14 -29v-813q0 -17 12 -29.5t29 -12.5h809q17 0 29.5 14.5t12.5 32.5t-12.5 32.5t-29.5 14.5zM292 114h84q18 0 30 12t12 30v135q0 17 -12 29.5t-30 12.5h-84q-17 0 -29 -12.5t-12 -29.5v-135q0 -18 12 -30t29 -12z" />
    <glyph glyph-name="iconfontcsac" unicode="&#xe657;" 
d="M301 862h38v-38h-38v38v0zM301 862zM301 785h38v-38h-38v38v0zM301 785zM301 709h38v-39h-38v39v0zM301 709zM301 632h38v-38h-38v38v0zM301 632zM301 555h38v-38h-38v38v0zM301 555zM301 632h38v-38h-38v38v0zM301 632zM301 479h38v-38h-38v38v0zM301 479zM301 479h38
v-38h-38v38v0zM301 479zM301 402h38v-38h-38v38v0zM301 402zM722 402v-38h-38v38h38v0zM722 402zM646 402v-38h-39v38h39v0zM646 402zM722 402v-38h-38v38h38v0zM722 402zM569 402v-38h-38v38h38v0zM569 402zM722 402v-38h-38v38h38v0zM722 402zM646 402v-38h-39v38h39v0z
M646 402zM569 402v-38h-38v38h38v0zM569 402zM492 402v-38h-38v38h38v0zM492 402zM569 402v-38h-38v38h38v0zM569 402zM416 402v-38h-39v38h39v0zM416 402z" />
    <glyph glyph-name="xiangxiajiantou" unicode="&#xe654;" 
d="M512 789q82 0 158 -32q72 -30 128.5 -86.5t86.5 -128.5q32 -76 32 -158t-32 -158q-30 -72 -86.5 -128.5t-128.5 -86.5q-76 -32 -158 -32t-158 32q-72 30 -128.5 86.5t-86.5 128.5q-32 76 -32 158t32 158q30 72 86.5 128.5t128.5 86.5q76 32 158 32zM512 830
q-91 0 -173.5 -35.5t-142 -95t-95 -142t-35.5 -173.5t35.5 -173.5t95 -142t142 -95t173.5 -35.5t173.5 35.5t142 95t95 142t35.5 173.5t-35.5 173.5t-95 142t-142 95t-173.5 35.5v0zM313 559l198 -389l200 389l-200 -80z" />
    <glyph glyph-name="jiantouzuo" unicode="&#xe6a2;" 
d="M667 174q0 -16 -11.5 -27.5t-27 -11.5t-27.5 12l-244 248l245 242q11 12 27 12t27 -11.5t11 -27.5t-11 -27l-191 -189l191 -193q11 -12 11 -27zM512 -125q-103 0 -197.5 40t-163 108.5t-108.5 163t-40 197.5t40 197.5t108.5 163t163 108.5t197.5 40t197.5 -40t163 -108.5
t108.5 -163t40 -197.5t-40 -197.5t-108.5 -163t-163 -108.5t-197.5 -40zM512 817q-88 0 -168 -34.5t-138 -92.5t-92.5 -138t-34.5 -168t34.5 -168t92.5 -138t138 -92.5t168 -34.5t168 34.5t138 92.5t92.5 138t34.5 168t-34.5 168t-92.5 138t-138 92.5t-168 34.5z" />
    <glyph glyph-name="jiantouyou" unicode="&#xe6a5;" 
d="M373 193l191 193l-191 189q-11 11 -11 27t11 27.5t27 11.5t27 -11l245 -243l-244 -248q-11 -12 -27 -12t-27.5 11.5t-11.5 27.5q0 15 11 27zM512 -125q-103 0 -197.5 40t-163 108.5t-108.5 163t-40 197.5t40 197.5t108.5 163t163 108.5t197.5 40t197.5 -40t163 -108.5
t108.5 -163t40 -197.5t-40 -197.5t-108.5 -163t-163 -108.5t-197.5 -40zM512 817q-88 0 -168 -34.5t-138 -92.5t-92.5 -138t-34.5 -168t34.5 -168t92.5 -138t138 -92.5t168 -34.5t168 34.5t138 92.5t92.5 138t34.5 168t-34.5 168t-92.5 138t-138 92.5t-168 34.5z" />
    <glyph glyph-name="chexiao1" unicode="&#xe658;" 
d="M512 892q-103 0 -197.5 -40t-162.5 -108t-108 -162.5t-40 -197.5t40 -197.5t108 -162.5t162.5 -108t197.5 -40t197.5 40t162.5 108t108 162.5t40 197.5t-40 197.5t-108 162.5t-162.5 108t-197.5 40v0zM512 -76q-94 0 -179 36.5t-146.5 98t-98 146.5t-36.5 179t36.5 179
t98 146.5t146.5 98t179 36.5q93 0 178 -36.5t146.5 -98t98.5 -147t37 -179t-36.5 -178.5t-98 -146.5t-146.5 -98t-179 -36.5v0zM512 -76zM486 643l-229 -232l229 -230v146q6 3 15.5 7t36.5 11.5t51.5 8.5t53 -8.5t48.5 -32.5t31.5 -71.5t6.5 -116.5l5.5 11t12 29.5t13.5 45
t6 53.5t-5 59t-25 58.5t-49.5 54.5t-82.5 44t-120 30zM486 643z" />
    <glyph glyph-name="genjintaolun" unicode="&#xe659;" 
d="M512 892q-103 0 -197.5 -40t-162.5 -108t-108 -162.5t-40 -197.5t40 -197.5t108 -162.5t162.5 -108t197.5 -40t197.5 40t162.5 108t108 162.5t40 197.5t-40 197.5t-108 162.5t-162.5 108t-197.5 40v0zM512 -76q-94 0 -179 36.5t-146.5 98t-98 146.5t-36.5 179t36.5 179
t98 146.5t146.5 98t179 36.5q93 0 178 -36.5t146.5 -98t98.5 -147t37 -179t-36.5 -178.5t-98 -146.5t-146.5 -98t-179 -36.5v0zM512 -76zM512 619q-101 0 -172.5 -54.5t-71.5 -131.5t71.5 -131.5t172.5 -54.5q11 0 12 -24.5t-3 -49.5l-4 -24q16 0 44 29.5t54 63t34 37.5
q49 25 78 66t29 88q0 77 -71.5 131.5t-172.5 54.5v0zM403 401q-13 0 -23 9.5t-10 23t10 23t23.5 9.5t23 -9.5t9.5 -23t-9.5 -23t-23.5 -9.5v0zM512 401q-13 0 -23 9.5t-10 23t10 23t23.5 9.5t23 -9.5t9.5 -23t-9.5 -23t-23.5 -9.5v0zM622 401q-14 0 -23.5 9.5t-9.5 23
t9.5 23t23 9.5t23.5 -9.5t10 -23t-10 -23t-23 -9.5v0zM622 401z" />
    <glyph glyph-name="guidang" unicode="&#xe65a;" 
d="M512 892q-103 0 -197.5 -40t-162.5 -108t-108 -162.5t-40 -197.5t40 -197.5t108 -162.5t162.5 -108t197.5 -40t197.5 40t162.5 108t108 162.5t40 197.5t-40 197.5t-108 162.5t-162.5 108t-197.5 40v0zM512 -76q-94 0 -179 36.5t-146.5 98t-98 146.5t-36.5 179t36.5 179
t98 146.5t146.5 98t179 36.5q93 0 178 -36.5t146.5 -98t98.5 -147t37 -179t-36.5 -178.5t-98 -146.5t-146.5 -98t-179 -36.5v0zM512 -76zM789 367l-68 179q-4 17 -25 17h-130v-51h111l49 -130h-84q-11 0 -19 -8t-8 -19v-27h-205v27q0 11 -8 19t-19 8h-84l49 130h111v51h-130
q-16 0 -25 -17l-68 -179q0 -1 -1.5 -4t-1.5 -6v-164q0 -11 8 -19t19 -8h498q11 0 19 8t8 19v164q8 6 4 10v0zM432 453q0 -14 7 -17l61 -62q8 -7 17 -7q14 0 18 7l61 62q7 7 7 17q0 11 -8 19t-19 8q-13 0 -17 -8l-17 -17v162q0 11 -8 19t-19 8t-19 -8t-8 -19v-162l-17 17
q-8 8 -17 8q-9 -2 -15.5 -9.5t-6.5 -17.5v0zM432 453z" />
    <glyph glyph-name="chuangjianxinrenwu" unicode="&#xe65b;" 
d="M512 892q-103 0 -197.5 -40t-162.5 -108t-108 -162.5t-40 -197.5t40 -197.5t108 -162.5t162.5 -108t197.5 -40t197.5 40t162.5 108t108 162.5t40 197.5t-40 197.5t-108 162.5t-162.5 108t-197.5 40v0zM512 -76q-94 0 -179 36.5t-146.5 98t-98 146.5t-36.5 179t36.5 179
t98 146.5t146.5 98t179 36.5q93 0 178 -36.5t146.5 -98t98.5 -147t37 -179t-36.5 -178.5t-98 -146.5t-146.5 -98t-179 -36.5v0zM512 -76zM282 604q-25 0 -42.5 -17.5t-17.5 -43t17.5 -42.5t43 -17t42.5 17t17 42.5t-17 43t-43 17.5v0zM282 444q-25 0 -42.5 -17.5
t-17.5 -42.5t17.5 -42.5t43 -17.5t42.5 17.5t17 42.5t-17 42.5t-43 17.5v0zM282 284q-25 0 -42.5 -17t-17.5 -42.5t17.5 -43t43 -17.5t42.5 17.5t17 43t-17 42.5t-43 17v0zM442 504h320q16 0 28 11.5t12 28t-12 28.5t-28 12h-320q-16 0 -28 -12t-12 -28.5t12 -28t28 -11.5v0
zM762 424h-320q-16 0 -28 -12t-12 -28t12 -28t28 -12h320q16 0 28 12t12 28t-12 28t-28 12v0zM762 264h-320q-16 0 -28 -11.5t-12 -28t12 -28.5t28 -12h320q16 0 28 12t12 28.5t-12 28t-28 11.5v0zM762 264z" />
    <glyph glyph-name="guidang-copy" unicode="&#xe65d;" 
d="M512 892q-103 0 -197.5 -40t-162.5 -108t-108 -162.5t-40 -197.5t40 -197.5t108 -162.5t162.5 -108t197.5 -40t197.5 40t162.5 108t108 162.5t40 197.5t-40 197.5t-108 162.5t-162.5 108t-197.5 40v0zM512 -76q-94 0 -179 36.5t-146.5 98t-98 146.5t-36.5 179t36.5 179
t98 146.5t146.5 98t179 36.5q93 0 178 -36.5t146.5 -98t98.5 -147t37 -179t-36.5 -178.5t-98 -146.5t-146.5 -98t-179 -36.5v0zM512 -76zM789 367l-68 179q-4 17 -25 17h-130v-51h111l49 -130h-84q-11 0 -19 -8t-8 -19v-27h-205v27q0 11 -8 19t-19 8h-84l49 130h111v51h-130
q-16 0 -25 -17l-68 -179q0 -1 -1.5 -4t-1.5 -6v-164q0 -11 8 -19t19 -8h498q11 0 19 8t8 19v164q8 6 4 10v0zM432 453q0 -14 7 -17l61 -62q8 -7 17 -7q14 0 18 7l61 62q7 7 7 17q0 11 -8 19t-19 8q-13 0 -17 -8l-17 -17v162q0 11 -8 19t-19 8t-19 -8t-8 -19v-162l-17 17
q-8 8 -17 8q-9 -2 -15.5 -9.5t-6.5 -17.5v0zM432 453z" />
    <glyph glyph-name="xiangxia1" unicode="&#xe65e;" 
d="M147 586q-25 0 -43 -17.5t-18 -43t18 -43t43 -17.5t43 17.5t18 43t-18 43t-43 17.5zM147 830q-25 0 -43 -18t-18 -43t18 -43t43 -18t43 18t18 43t-18 43t-43 18zM360 738h548q12 0 21 9t9 22t-9 21.5t-21 8.5h-548q-13 0 -22 -8.5t-9 -21.5t9 -22t22 -9zM147 343
q-25 0 -43 -18t-18 -43t18 -43t43 -18t43 18t18 43t-18 43t-43 18zM908 556h-548q-13 0 -22 -9t-9 -21.5t9 -21.5t22 -9h548q12 0 21 9t9 21.5t-9 21.5t-21 9zM908 313h-548q-13 0 -22 -9t-9 -21.5t9 -21.5t22 -9h548q12 0 21 9t9 21.5t-9 21.5t-21 9zM512 -62l86 137h-172z
" />
    <glyph glyph-name="filesgif" unicode="&#xe6b2;" 
d="M1024 -14v796q0 47 -33.5 80.5t-80.5 33.5h-796q-47 0 -80.5 -33.5t-33.5 -80.5v-796q0 -47 33.5 -80.5t80.5 -33.5h796q47 0 80.5 33.5t33.5 80.5zM313 299l142 -171l199 256l256 -341h-796l199 256v0z" />
    <glyph glyph-name="renwu11" unicode="&#xe663;" 
d="M722.5 665q17.5 0 30 12.5t12.5 29.5v85q0 17 -12.5 29.5t-30 12.5t-29.5 -12.5t-12 -29.5v-85q0 -17 12 -29.5t29.5 -12.5zM512 665q17 0 29.5 12.5t12.5 29.5v85q0 17 -12.5 29.5t-29.5 12.5t-29.5 -12.5t-12.5 -29.5v-85q0 -17 12.5 -29.5t29.5 -12.5zM878 750h-71
v-43q0 -35 -24.5 -59.5t-59.5 -24.5t-59.5 25t-24.5 59v43h-43v-43q0 -35 -24.5 -59.5t-59.5 -24.5t-59.5 25t-24.5 59v43h-43v-43q0 -35 -24.5 -59.5t-59.5 -24.5t-59.5 25t-24.5 59v43h-71q-17 0 -29.5 -12.5t-12.5 -30.5v-731q0 -17 12.5 -29.5t29.5 -12.5h732
q17 0 29.5 12.5t12.5 29.5v731q0 18 -12.5 30.5t-29.5 12.5zM772 75h-520q-15 0 -25 10t-10 24.5t10 25t25 10.5h520q15 0 25 -10.5t10 -25t-10 -24.5t-25 -10zM765 243h-506q-18 0 -30 12.5t-12 30t12 30t30 12.5h506q18 0 30 -12.5t12 -30t-12 -30t-30 -12.5zM765 426
h-506q-18 0 -30 12.5t-12 30t12 30t30 12.5h506q18 0 30 -12.5t12 -30t-12 -30t-30 -12.5zM301.5 665q17.5 0 29.5 12.5t12 29.5v85q0 17 -12 29.5t-29.5 12.5t-30 -12.5t-12.5 -29.5v-85q0 -17 12.5 -29.5t30 -12.5z" />
    <glyph glyph-name="zhengsanjiao" unicode="&#xe664;" 
d="M187 132l323 515l323 -515h-646v0z" />
    <glyph glyph-name="paixu" unicode="&#xe68b;" 
d="M28 732v-84h968v84h-968v0zM28 36h968v84h-968v-84v0zM28 352h968v86h-968v-86v0zM28 352z" />
    <glyph glyph-name="iconfontdaosanjiao" unicode="&#xe662;" 
d="M208 765l608 -382l-608 -382v764z" />
    <glyph glyph-name="shangchuan1" unicode="&#xe695;" 
d="M512 -43q-116 0 -214 57.5t-155.5 155.5t-57.5 214t57.5 214t155.5 155.5t214 57.5t214 -57.5t155.5 -155.5t57.5 -214t-57.5 -214t-155.5 -155.5t-214 -57.5zM512 777q-107 0 -197 -53t-143 -143t-53 -197t53 -197t143 -143t197 -53t197 53t143 143t53 197t-53 197
t-143 143t-197 53zM700 179h-17h-342l-34 3q-15 6 -24.5 19t-9.5 29v128q0 11 7.5 18.5t18 7.5t18 -7.5t7.5 -18.5v-76v-17q0 -15 10 -25t24 -10h308q14 0 24 10t10 25v34v59q0 11 7.5 18.5t18 7.5t18 -7.5t7.5 -18.5v-111v-17q0 -21 -15 -36t-36 -15zM638 487v0v-1h-3v0v0
h-55v0v-187q0 -14 -10 -24t-24 -10h-68q-14 0 -24 10t-10 24v187v0h-55v0v0v0v0q-6 1 -10 5t-4 10t6 11l117 130h1v0q4 8 12.5 8t12.5 -8h0.5h0.5l118 -130q2 -2 3 -4l2 -2v-0.5v-0.5q1 -2 1 -4q0 -11 -11 -14z" />
    <glyph glyph-name="huidang" unicode="&#xe667;" 
d="M512 896q-104 0 -199 -40.5t-163.5 -109t-109 -163.5t-40.5 -199t40.5 -199t109 -163.5t163.5 -109t199 -40.5t199 40.5t163.5 109t109 163.5t40.5 199t-40.5 199t-109 163.5t-163.5 109t-199 40.5zM512 -79q-94 0 -180 36.5t-148 98.5t-98.5 148t-36.5 180t36.5 180
t98.5 148t148 98.5t180 36.5q93 0 179 -36.5t148 -98.5t99 -148t37 -180t-36.5 -180t-98.5 -148t-148 -98.5t-180 -36.5zM721 534q0 13 -7.5 20.5t-14.5 8.5l-8 1h-358q-3 0 -8 -1t-13.5 -8.5t-8.5 -20.5v-30h418v30v0zM631 624h-238q-4 0 -9 -1t-13 -8.5t-8 -20.5h298
q0 13 -7.5 20.5t-14.5 8.5zM781 504v0l-18 18v-48h-502v48l-18 -18q-2 -2 -8 -7.5t-7.5 -7.5t-5 -7.5t-4 -9.5t-0.5 -11.5t2 -16.5q4 -21 24.5 -140t22.5 -130q2 -13 11 -20.5t17 -8.5l8 -1h418q3 0 8.5 1t15.5 8.5t12 20.5q2 11 22.5 130t24.5 140q2 9 2 16.5t-0.5 11.5
t-4 9.5t-5 7.5t-7.5 7.5t-8 7.5zM631 342v0q0 -3 -0.5 -8t-8 -13.5t-21.5 -8.5h-179q-13 0 -20.5 7.5t-8.5 15.5v7v60h41v-48h155v48h42v-60z" />
    <glyph glyph-name="didian22" unicode="&#xe6b7;" 
d="M244 747q76 75 177.5 102t203 0t177.5 -102q74 -75 92.5 -178t-16.5 -203.5t-112 -178.5l-243 -279l-243 279q-77 78 -112.5 178.5t-17 203.5t93.5 178zM523 9l192 229q64 64 94 146t16.5 166.5t-74.5 145.5q-62 62 -145 84t-166 0t-145 -84q-61 -61 -74.5 -145.5
t16.5 -166.5t93 -146zM523 683q-74 0 -126.5 -53t-52.5 -127.5t52.5 -127t126.5 -52.5t126.5 52.5t52.5 127t-52.5 127.5t-126.5 53zM522.5 395q-44.5 0 -76 31.5t-31.5 76.5t31.5 76.5t76 31.5t76 -31.5t31.5 -76.5t-31.5 -76.5t-76 -31.5z" />
    <glyph glyph-name="tingzhi" unicode="&#xe7fc;" 
d="M513 888q-103 0 -196 -40t-160.5 -107.5t-107 -160.5t-39.5 -195.5t39.5 -195.5t107 -160.5t160.5 -107t195.5 -39.5t195.5 39.5t160.5 107t107.5 160.5t40 195.5t-40 195.5t-107.5 160.5t-160.5 107.5t-195 40v0zM513 -46q-117 0 -216.5 57.5t-157 157t-57.5 216.5
t57.5 216t157 157t216.5 58t216 -58t157 -157t58 -216t-58 -216.5t-157 -157t-216 -57.5v0zM382 525h276v-298h-276v298zM680 245q0 -8 -5 -13t-13 -5h-287q-8 0 -13 5t-5 13v287q0 8 5 13t13 5h287q8 0 13 -5t5 -13v-287zM391 263h253v251h-253v-251z" />
    <glyph glyph-name="iconqi" unicode="&#xe66a;" 
d="M512 -128q-139 0 -257 68.5t-186.5 186.5t-68.5 257t68.5 257t186.5 186.5t257 68.5t257 -68.5t186.5 -186.5t68.5 -257t-68.5 -257t-186.5 -186.5t-257 -68.5zM512 847q-94 0 -180 -36.5t-148 -98.5t-98.5 -148t-36.5 -180t36.5 -180t98.5 -148t148 -98.5t180 -36.5
t180 36.5t148 98.5t98.5 148t36.5 180t-36.5 180t-98.5 148t-148 98.5t-180 36.5zM417 201q25 -14 62.5 -19t115.5 -5q119 0 188 10q-11 -29 -13 -42q-53 -2 -153 -2q-103 0 -151.5 9.5t-82.5 36.5t-56 68q-18 -78 -44 -124q-7 7 -32 22q54 82 54 205v24l36 -5q0 -3 -1 -9
t-1 -13q0 -27 -5 -61q17 -36 54 -73v193h-64q-41 0 -56 -3v39q12 -2 56 -2h59v75h-44q-37 0 -51 -2v37q12 -3 51 -3h44v24q0 39 -3 57h42q-8 -20 -8 -59v-24h39q39 0 52 2v-36q-15 2 -52 2h-39v-76h47q41 0 53 3v-39q-14 2 -53 2h-44v-80h46q32 0 47 2v-36q-15 2 -47 2h-46
v-100zM731 482q0 -47 3 -61q-15 2 -64 2h-99v-146q0 -15 4 -17q8 -8 54 -8q68 0 83 8q17 10 17 92q14 -7 34 -14q-3 -70 -15 -93q-7 -14 -30 -19t-79 -5q-64 0 -83 9q-11 6 -15.5 14t-4.5 28v124q0 47 -2 64q15 -3 58 -3h105v112h-112q-36 0 -53 -2v36q14 -2 56 -2h90
q44 0 56 2q-3 -14 -3 -56v-65z" />
    <glyph glyph-name="iconwan" unicode="&#xe66b;" 
d="M512 -128q-139 0 -257 68.5t-186.5 186.5t-68.5 257t68.5 257t186.5 186.5t257 68.5t257 -68.5t186.5 -186.5t68.5 -257t-68.5 -257t-186.5 -186.5t-257 -68.5zM512 847q-94 0 -180 -36.5t-148 -98.5t-98.5 -148t-36.5 -180t36.5 -180t98.5 -148t148 -98.5t180 -36.5
t180 36.5t148 98.5t98.5 148t36.5 180t-36.5 180t-98.5 148t-148 98.5t-180 36.5zM332 352q-42 0 -56 -2v39q14 -3 56 -3h365q42 0 56 3v-39q-14 2 -56 2h-114v-156q0 -11 10.5 -14t52.5 -3q49 0 64 4t17 18q2 12 2 56q10 -5 34 -14q-1 -26 -2 -39.5t-6 -26t-11.5 -17.5
t-22 -9.5t-32.5 -5t-48 -0.5q-61 0 -79 8t-18 34v165h-81q-3 -62 -22 -100q-25 -55 -80 -87q-20 -12 -73 -35q-8 15 -22 35q68 22 97 46q48 34 64 102q1 6 2.5 19.5t2.5 19.5h-100zM695 574q39 0 56 3q-3 -13 -3 -39v-37q0 -27 3 -39h-37v80h-397v-80h-37q3 12 3 39v37
q0 26 -3 39q17 -3 56 -3h161q-9 25 -31 51l31 17q19 -23 39 -68h159zM354 482q14 -3 48 -3h220q34 0 48 3v-37q-14 2 -48 2h-220q-34 0 -48 -2v37z" />
    <glyph glyph-name="icontime" unicode="&#xe66c;" 
d="M512 -128q-139 0 -257 68.5t-186.5 186.5t-68.5 257t68.5 257t186.5 186.5t257 68.5t257 -68.5t186.5 -186.5t68.5 -257t-68.5 -257t-186.5 -186.5t-257 -68.5zM512 847q-94 0 -180 -36.5t-148 -98.5t-98.5 -148t-36.5 -180t36.5 -180t98.5 -148t148 -98.5t180 -36.5
t180 36.5t148 98.5t98.5 148t36.5 180t-36.5 180t-98.5 148t-148 98.5t-180 36.5zM519 569q0 42 -2 59h44q-3 -17 -3 -59v-129h112q42 0 59 3v-42q-17 3 -59 3h-112v-215h144q44 0 61 2v-41q-44 5 -61 5h-373q-44 0 -63 -5v41q17 -2 63 -2h34v275q0 42 -2 59h44
q-3 -17 -3 -59v-275h117v380z" />
    <glyph glyph-name="iconfonticonqi" unicode="&#xe66e;" 
d="M512 -114q-101 0 -193.5 39.5t-159 106t-106 159t-39.5 193.5t39.5 193.5t106 159t159 106t193.5 39.5t193.5 -39.5t159 -106t106 -159t39.5 -193.5t-39.5 -193.5t-106 -159t-159 -106t-193.5 -39.5v0zM512 835q-92 0 -175.5 -36t-143.5 -96t-96 -143.5t-36 -175.5
t36 -175.5t96 -143.5t143.5 -96t175.5 -36t175.5 36t143.5 96t96 143.5t36 175.5t-36 175.5t-96 143.5t-143.5 96t-175.5 36v0zM435 128q61 0 105 42l194 193q5 6 5.5 14t-5.5 14q-5 5 -13 5.5t-14 -5.5q-1 -1 -2 -1l-189 -189l-2 -2q-33 -32 -79 -32q-48 0 -81 33t-33.5 80
t32.5 81l17 17l47 47l54 54l99 99q23 23 55.5 23t55.5 -23t23 -55.5t-23 -55.5l-218 -217q-12 -11 -28 -10.5t-27 11.5q-12 11 -12 27t10 28h1l191 192q5 5 5 13t-5.5 13.5t-13.5 5.5t-14 -5l-189 -189l4 -5l-5 3l-3 -2q-2 -2 -2 -3q-19 -24 -17.5 -54t22.5 -51
q23 -24 56 -24q31 0 53 21l219 219q34 34 34 82.5t-34 83t-82.5 34.5t-83.5 -34l-217 -218q-44 -45 -43.5 -108t44.5 -107q45 -45 109 -45v0z" />
    <glyph glyph-name="shipin" unicode="&#xe66d;" 
d="M114 896h-114v-1024h114h796h114v1024h-910zM877 186l-205 97v1v-90q0 -17 -11.5 -28.5t-28.5 -11.5h-446q-16 0 -27.5 11.5t-11.5 28.5v380q0 17 11.5 28.5t27.5 11.5h446q17 0 28.5 -11.5t11.5 -28.5v-91l205 97v-394z" />
    <glyph glyph-name="bofang" unicode="&#xe678;" 
d="M512 896q-104 0 -199 -40.5t-163.5 -109t-109 -163.5t-40.5 -199t40.5 -199t109 -163.5t163.5 -109t199 -40.5t199 40.5t163.5 109t109 163.5t40.5 199t-40.5 199t-109 163.5t-163.5 109t-199 40.5v0zM729 355l-324 -187q-17 -10 -33.5 0t-16.5 29v374q0 20 16.5 29.5
t33.5 -0.5l324 -187q17 -10 17 -29t-17 -29v0z" />
    <glyph glyph-name="yuyinc" unicode="&#xe679;" 
d="M512 896q-104 0 -199 -40.5t-163.5 -109t-109 -163.5t-40.5 -199t40.5 -199t109 -163.5t163.5 -109t199 -40.5t199 40.5t163.5 109t109 163.5t40.5 199t-40.5 199t-109 163.5t-163.5 109t-199 40.5zM403 566q0 45 32 77t77 32t77 -32t32 -77v-146q0 -45 -32 -77t-77 -32
t-77 32t-32 77v146zM712 411v0q0 -75 -49.5 -131.5t-123.5 -66.5v-66h91q12 0 20 -8t8 -19t-8 -19t-20 -8h-236q-12 0 -20 8t-8 19t8 19t20 8h91v66q-74 10 -123.5 66.5t-49.5 131.5v0v0q0 12 8 20t19 8t19 -8t8 -20q0 -60 43 -102.5t103 -42.5t103 42.5t43 102.5q0 12 8 20
t19 8t19 -8t8 -20v0z" />
    <glyph glyph-name="yuyin" unicode="&#xe677;" 
d="M512 256q80 0 136 56t56 136v256q0 80 -56 136t-136 56t-136 -56t-56 -136v-256q0 -80 56 -136t136 -56v0zM864 432v0v0q0 20 -14 34t-34 14t-34 -14t-14 -34v0q0 -106 -75 -181t-181 -75t-181 75t-75 181v0q0 20 -14 34t-34 14t-34 -14t-14 -34v0v0q0 -133 87 -232
t217 -116v-116h-160q-20 0 -34 -14t-14 -34t14 -34t34 -14h416q20 0 34 14t14 34t-14 34t-34 14h-160v116q130 17 217 116t87 232v0z" />
    <glyph glyph-name="wenzi" unicode="&#xe67a;" 
d="M717 -38h-410v35q27 10 55 17q26 7 59 12v717h-155l-65 -172h-31q-4 23 -6 55q-2 27 -5 62q-1 29 -3 63q-1 30 -1 55h714q0 -23 -1.5 -54.5t-3.5 -62.5q0 -5 -1.5 -27.5t-1.5 -34.5q-2 -31 -6 -56h-32l-65 172h-154v-717l60 -12q27 -6 53 -17v-35zM717 -38z" />
    <glyph glyph-name="iconfontmorentouxiang" unicode="&#xe676;" 
d="M512 896q-104 0 -199 -40.5t-163.5 -109t-109 -163.5t-40.5 -199t40.5 -199t109 -163.5t163.5 -109t199 -40.5t199 40.5t163.5 109t109 163.5t40.5 199t-40.5 199t-109 163.5t-163.5 109t-199 40.5v0zM508 709q63 0 107 -44t44 -105.5t-44 -105.5t-106.5 -44t-106.5 44
t-44 105.5t44 105.5t106 44v0zM776 161h-528v26q0 55 42 104.5t102.5 77t119.5 27.5t119.5 -27.5t102.5 -77t42 -104.5v-26v0z" />
    <glyph glyph-name="word" unicode="&#xe697;" 
d="M626 764v-67h310v-43h-310v-71h310v-43h-310v-68h310v-43h-310v-68h310v-43h-310v-68h310v-43h-310v-69h310v-43h-310v-89h398v758h-398v0zM0 787v-806l577 -109v1024l-577 -109v0zM418 210l334 318l-54 239l-67 -239l-477 -210l-83 243h83l33 -219l55 241h87l47 -263
l50 263h83l-91 -373v0z" />
    <glyph glyph-name="shanchu" unicode="&#xe67c;" 
d="M511 830q-130 0 -221.5 -91t-91.5 -221t91.5 -221.5t221.5 -91.5t221.5 91.5t91.5 221.5t-91.5 221t-221.5 91v0zM667 405l-44 -44l-112 113l-113 -113l-43 44l112 113l-112 112l43 44l113 -113l112 113l44 -44l-112 -112l112 -113v0zM384 43v36q0 31 -1 41q6 -1 18 -1
h12q12 0 18 1q-1 -4 -1 -21v-56q8 1 11 1v-13q-3 0 -11 1v-75q0 -10 -4 -13.5t-17 -3.5h-9q0 8 -3 14q8 -2 14 -2q7 0 7 6v74h-22q-1 -4 -1 -7q0 -35 -4 -57q-3 -14 -10 -28q-5 5 -11 9q12 24 14 83h-16v-75q0 -10 -4 -13.5t-16 -3.5q-6 0 -11 1q-1 7 -3 13q11 -2 16 -2
q6 0 6 6v74h-21v-9q0 -32 -6 -55q-4 -17 -12 -30q-4 5 -11 8q15 23 17 86q-6 0 -13 -1v13q5 0 13 -1q1 19 1 36q0 32 -1 41q4 -1 17 -1h11q12 0 18 1q-1 -4 -1 -21v-56h16v0zM356 108h-20v-33q0 -21 -1 -32h21v65zM418 108h-22v-34v-31h22v65zM462 111q-1 -7 -1 -22v-81
q0 -16 1 -23h-15q1 7 1 23v81q0 16 -1 22h15zM495 125q-2 -8 -2 -25v-142q0 -13 -7 -16q-5 -2 -16 -2t-18 1q-2 8 -4 13q10 -2 23 -2q10 0 10 6v142q0 17 -2 25h16zM530 105q0 10 -1 16q4 -1 14 -1h28q9 0 13 1l7 -7q0 -1 -1 -3q0 -1 -0.5 -2t-1.5 -2q-10 -25 -23 -46
q10 -12 14 -23q4 -12 4 -26q0 -20 -11 -24q-6 -1 -15 -1h-7q0 5 -3 12h13t8.5 3t2.5 11q0 15 -6 27q-4 9 -13 20q14 23 23 49h-32v-149q0 -11 1 -22h-15q1 9 1 23v144zM615 3q-14 -33 -36 -54q-4 6 -10 10q13 11 20 20q7 11 14 29zM651 125l-2 -4q20 -22 33 -33
q15 -11 34 -21q-5 -6 -8 -12q-22 13 -39 28q-13 12 -27 28q-25 -34 -58 -55q-3 6 -9 11q22 12 37 27q12 12 26 34zM618 55h-17v13q7 -1 17 -1h52q10 0 16 1v-13h-16h-21v-25h39q11 0 20 1v-15q-9 2 -20 2h-39v-62q0 -9 -4.5 -12.5t-15.5 -3.5q-10 0 -19 1q-1 7 -4 14
q13 -2 21 -2t8 5v60h-29q-11 0 -18 -1v14q7 -1 18 -1h29v25h-17v0zM698 -51q-15 31 -33 54l10 6q19 -23 34 -53z" />
    <glyph glyph-name="fenxiang" unicode="&#xe67d;" 
d="M596 444q-22 0 -37 -15.5t-15 -37t15 -37t37 -15.5t37 15.5t15 37t-15 37t-37 15.5v0zM512 830q-130 0 -221.5 -91.5t-91.5 -221.5t91.5 -222t221.5 -92t221.5 92t91.5 222t-91.5 221.5t-221.5 91.5v0zM596 318q-30 0 -51.5 21.5t-21.5 51.5q0 10 3 21l-60 45
q-24 -24 -58 -24q-35 0 -59.5 24.5t-24.5 59t24.5 59t59.5 24.5t59 -24l56 51q-11 17 -11 36q0 30 21.5 51.5t52 21.5t52 -21.5t21.5 -51.5t-21.5 -51.5t-52.5 -21.5q-28 0 -50 20l-55 -51q11 -20 11 -42q0 -23 -12 -43l56 -42q22 33 61 33q30 0 51.5 -21.5t21.5 -52
t-21.5 -52t-51.5 -21.5v0zM408 580q-26 0 -44.5 -18.5t-18.5 -44.5t18.5 -44.5t44.5 -18.5t44.5 18.5t18.5 44.5t-18.5 44.5t-44.5 18.5v0zM549 626q16 -15 37 -15t36.5 15t15.5 37t-15.5 37t-37 15t-37 -15t-15.5 -37q0 -20 15 -36l1 -1v0zM395 118q-2 -3 -5 -11
q-24 -46 -65 -77q-4 6 -11 11q37 24 57 60q7 13 9 22zM402 37q-2 -31 -16 -54q-15 -26 -52 -45q-3 6 -9 12q38 18 52 45q9 17 11 42h-13q-11 0 -21 -1v15q9 -2 22 -2h67q15 0 22 2q-1 -4 -1 -15q0 -68 -9 -85q-5 -8 -20 -8q-10 0 -28 2q0 7 -3 14q18 -3 30 -3q8 0 10 5
q6 20 6 76h-48v0zM439 123q3 -8 8 -18q22 -38 61 -64q-5 -5 -10 -13q-24 19 -39.5 37t-29.5 46q-3 5 -3 6zM611 -7v11h9q22 6 39 14q-13 -1 -25 -1h-69q-12 0 -19 -1v13q7 -1 19 -1h95q13 0 17 1l6 -7q-25 -17 -59 -26v-4h65q13 0 21 2v-14q-9 1 -21 1h-65v-27
q0 -9 -4.5 -12.5t-15.5 -3.5q-13 0 -27 1q-1 7 -4 13q17 -3 29 -3q9 0 9 6v26h-66q-12 0 -21 -1v14q8 -2 21 -2h66v1zM687 107q12 0 20 1v-14q-9 1 -20 1h-139q-11 0 -20 -1v14q9 -1 20 -1h61q-6 8 -13 15l12 6q9 -10 17 -21h62zM553 71v12q8 -1 17 -1h92q12 0 18 1v-12v-18
v-12q-8 1 -17 1h-93q-10 0 -17 -1v13v17zM566 52h101v20h-101v-20z" />
    <glyph glyph-name="bianji" unicode="&#xe67e;" 
d="M449 453l10 -8l7 10l-10 8zM565 611l-105 -142l11 -8l104 142zM512 832q-129 0 -220 -91t-91 -219.5t91 -219.5t220 -91t220 91t91 219.5t-91 219.5t-220 91v0zM517 704q5 6 12.5 7t13.5 -3l65 -48q6 -5 7 -12t-3 -13l-6 -8l-94 70zM344 361q-3 -2 -6 0.5t-3 5.5
q2 20 10 90l82 -60q-14 -6 -48 -21t-35 -15v0zM353 481l152 206l94 -70l-152 -206zM660 359h-207v14h207v-14zM660 433h-163v14h163v-14zM376 -30q-5 -2 -21 -7q-16 -6 -34 -10q-3 -1 -6 -3l-3 15q22 0 64 18v-13zM314 9q8 2 17 12q12 14 23 31q-5 -1 -15 -1q-13 -1 -21 -4
l-3 13q5 3 10 10q6 8 18 35q4 7 8 20l13 -6q-5 -10 -7 -15q-14 -27 -25 -43q7 0 12 0.5t9 1t9 0.5q2 3 10 18l12 -6q-3 -5 -9 -14t-20 -27q-8 -9 -21 -23q31 6 45 9l-1 -12l-15 -3q-6 -2 -18 -4q-21 -3 -28 -5zM477 103q11 0 18 1v-16v-17v-16h-18h-74q0 -21 -3 -43
q-5 -40 -20 -66q-4 5 -10 9q21 35 21 129v20q7 -1 19 -1h29q-4 7 -12 18l12 5q9 -14 13 -23h25zM403 67h80v25h-80v-25zM417 -14v-28q0 -14 1 -21h-13q1 9 1 21v58q0 13 -1 20h22h51q14 0 21 1q-1 -7 -1 -22v-61q0 -8 -3.5 -11t-11.5 -3h-8q0 6 -2 12q4 -1 8 -1q6 0 6 4v31
h-18v-24q0 -13 1 -21h-12q1 8 1 21v24h-17v-24q0 -14 1 -21h-12q1 8 1 21v24h-15v0zM432 25h-15v-29h15v29zM459 -4v29h-17v-29h17zM487 -4v29h-18v-29h18zM542 90h-5q-11 0 -17 -2v14q6 -1 18 -1h7l1 2q3 11 4 24l15 -3q-2 -7 -7 -22v-1h24q11 0 17 1v-14q-7 2 -17 2h-27
l-16 -53h23v16q0 9 -1 17h15q-1 -7 -1 -17v-16h3q13 0 21 1v-14q-9 2 -21 2h-3v-31q17 4 28 7v-12q-14 -3 -28 -7v-25q0 -12 1 -22h-15q1 11 1 22v22q-10 -2 -30 -5q-3 -1 -9 -2l-2 14q13 0 41 6v33h-19q-8 0 -14 -1l-6 10q4 5 6 10zM693 -24q12 1 18 2l1 -13h-4h-15v-9
q0 -10 2 -20h-15q1 9 1 20v8l-71 -7q-8 0 -15 -2l-1 13h4q5 0 13 1h4v81h-3q-8 0 -15 -1v13q5 -1 17 -1h75q15 0 21 1v-13q-7 1 -17 1v-74zM610 104q0 7 -1 13q4 -1 16 -1h58q11 0 16 1q-1 -5 -1 -13v-15q0 -9 1 -13h-15h-59h-16q1 6 1 14v14zM622 87h64v19h-64v-19zM628 50
v-19h53v19h-53zM628 21v-19h53v19h-53zM681 -8h-53v-22l53 5v17z" />
    <glyph glyph-name="biaoqian1" unicode="&#xe67f;" 
d="M544 806h2l332 -37q16 -2 18 -18l37 -332q1 -9 -6 -16l-433 -432q-6 -6 -14 -6t-14 6l-369 368q-6 6 -6 14.5t6 14.5l433 432q6 6 14 6zM544 831q-19 0 -33 -13l-432 -432q-13 -14 -13 -33t13 -32l369 -369q13 -13 32 -13t33 13l432 433q15 15 13 37l-37 332
q-2 16 -13 27.5t-27 12.5l-332 37h-5v0zM725.5 658q27.5 0 47 -19.5t19.5 -47t-19.5 -47t-47 -19.5t-47 19.5t-19.5 47t19.5 47t47 19.5zM726 684q-38 0 -65 -27t-27 -65t27 -65t65 -27t65 27t27 65t-27 65t-65 27v0zM167 448l405 -404z" />
    <glyph glyph-name="fenlei1" unicode="&#xe682;" 
d="M438 406h-361q-5 0 -8.5 3.5t-3.5 8.5v360q0 5 3.5 8.5t8.5 3.5h361q5 0 8.5 -3.5t3.5 -8.5v-360q0 -5 -3.5 -8.5t-8.5 -3.5zM89 430h337v336h-337v-336zM438 -64h-361q-5 0 -8.5 3.5t-3.5 8.5v361q0 5 3.5 8.5t8.5 3.5h361q5 0 8.5 -3.5t3.5 -8.5v-361q0 -5 -3.5 -8.5
t-8.5 -3.5zM89 -40h337v337h-337v-337zM907 -64h-361q-5 0 -8.5 3.5t-3.5 8.5v361q0 5 3.5 8.5t8.5 3.5h361q5 0 8.5 -3.5t3.5 -8.5v-361q0 -5 -3.5 -8.5t-8.5 -3.5zM558 -40h337v337h-337v-337zM726 365q-5 0 -8 4l-221 221q-9 8 0 17l221 221q8 8 17 0l221 -221
q9 -9 0 -17l-221 -221q-4 -4 -9 -4zM522 598l204 -204l205 204l-205 204z" />
    <glyph glyph-name="yuyinshuru" unicode="&#xe683;" 
d="M659 71q-112 0 -191 97q-79 96 -80 233v152q0 6 3.5 9.5t8 3.5t8 -3.5t3.5 -9.5v-152q1 -126 74 -216q72 -88 174 -88q101 0 174 88q72 89 74 215v153q0 6 3.5 9.5t8 3.5t8 -3.5t3.5 -9.5v-153q-2 -137 -81 -232q-79 -97 -190 -97zM659 -68q-5 0 -9 4t-4 9v130q0 5 4 8.5
t9 3.5t9 -3.5t4 -8.5v-130q0 -5 -4 -9t-9 -4zM807 -68h-297q-5 0 -9 4t-4 9t4 9t9 4h297q6 0 9.5 -4t3.5 -9t-3.5 -9t-9.5 -4zM659 805q55 0 93.5 -43t38.5 -103v-256q0 -60 -38.5 -103t-93.5 -43t-94 43t-39 103v256q0 60 39 103t94 43zM659 831q-66 0 -112 -50.5
t-46 -121.5v-256q0 -71 46 -121.5t111.5 -50.5t112 50.5t46.5 121.5v256q0 71 -46.5 121.5t-111.5 50.5v0zM201 574h-126q-5 0 -9 4t-4 9v126q0 5 4 9t9 4h126q5 0 9 -4t4 -9v-126q0 -5 -4 -9t-9 -4zM88 600h100v100h-100v-100zM201 308h-126q-5 0 -9 4t-4 9v126q0 5 4 9
t9 4h126q5 0 9 -4t4 -9v-126q0 -5 -4 -9t-9 -4zM88 334h100v100h-100v-100zM201 42h-126q-5 0 -9 4t-4 9v126q0 5 4 9t9 4h126q5 0 9 -4t4 -9v-126q0 -5 -4 -9t-9 -4zM88 68h100v100h-100v-100zM473 648h-219q-5 0 -8.5 3.5t-3.5 9t3.5 9t8.5 3.5h219q6 0 9.5 -3.5t3.5 -9
t-3.5 -9t-9.5 -3.5zM473 99h-219q-5 0 -8.5 4t-3.5 9t3.5 9t8.5 4h219q6 0 9.5 -4t3.5 -9t-3.5 -9t-9.5 -4zM354 371h-100q-5 0 -8.5 4t-3.5 9t3.5 9t8.5 4h100q5 0 9 -4t4 -9t-4 -9t-9 -4z" />
    </font>
</defs>
</svg>
